NotoSansMono-Regular.ufo
<glyph name="asciitilde" format="2">
  <advance width="600"/>
  <unicode hex="007E"/>
  <outline>
    <contour>
      <point x="85" y="287" type="line"/>
      <point x="117" y="320"/>
      <point x="162" y="346"/>
      <point x="199" y="346" type="curve" smooth="yes"/>
      <point x="223" y="346"/>
      <point x="244" y="336"/>
      <point x="283" y="319" type="curve" smooth="yes"/>
      <point x="335" y="297"/>
      <point x="362" y="287"/>
      <point x="395" y="287" type="curve" smooth="yes"/>
      <point x="443" y="287"/>
      <point x="483" y="306"/>
      <point x="515" y="341" type="curve"/>
      <point x="515" y="418" type="line"/>
      <point x="483" y="385"/>
      <point x="439" y="359"/>
      <point x="400" y="359" type="curve" smooth="yes"/>
      <point x="376" y="359"/>
      <point x="355" y="368"/>
      <point x="316" y="386" type="curve" smooth="yes"/>
      <point x="264" y="410"/>
      <point x="238" y="418"/>
      <point x="205" y="418" type="curve" smooth="yes"/>
      <point x="157" y="418"/>
      <point x="117" y="400"/>
      <point x="85" y="365" type="curve"/>
    </contour>
  </outline>
</glyph>
<glyph name="Oslash" format="2">
  <advance width="600"/>
  <unicode hex="00D8"/>
  <anchor x="300" y="0" name="bottom"/>
  <anchor x="300" y="714" name="top"/>
  <anchor x="300" y="357" name="center"/>
  <anchor x="299" y="10" name="ogonek"/>
  <anchor x="20" y="714" name="topleft"/>
  <anchor x="600" y="714" name="topright"/>
  <outline>
    <contour>
      <point x="121" y="-38" type="line"/>
      <point x="550" y="714" type="line"/>
      <point x="486" y="749" type="line"/>
      <point x="56" y="-3" type="line"/>
    </contour>
    <component base="O"/>
  </outline>
</glyph>
<glyph name="oslash" format="2">
  <advance width="600"/>
  <unicode hex="00F8"/>
  <anchor x="300" y="0" name="bottom"/>
  <anchor x="300" y="536" name="top"/>
  <anchor x="300" y="268" name="center"/>
  <anchor x="301" y="10" name="ogonek"/>
  <anchor x="580" y="536" name="topright"/>
  <outline>
    <contour>
      <point x="132" y="-33" type="line"/>
      <point x="533" y="528" type="line"/>
      <point x="474" y="566" type="line"/>
      <point x="74" y="6" type="line"/>
    </contour>
    <component base="o"/>
  </outline>
</glyph>
<glyph name="eogonek" format="2">
  <advance width="600"/>
  <unicode hex="0119"/>
  <anchor x="320" y="-220" name="bottom"/>
  <anchor x="300" y="536" name="top"/>
  <anchor x="306" y="10" name="ogonek"/>
  <anchor x="580" y="536" name="topright"/>
  <outline>
    <contour>
      <point x="447" y="-220" type="curve" smooth="yes"/>
      <point x="470" y="-220"/>
      <point x="488" y="-216"/>
      <point x="507" y="-211" type="curve"/>
      <point x="507" y="-155" type="line"/>
      <point x="496" y="-159"/>
      <point x="478" y="-161"/>
      <point x="466" y="-161" type="curve" smooth="yes"/>
      <point x="433" y="-161"/>
      <point x="414" y="-146"/>
      <point x="414" y="-110" type="curve" smooth="yes"/>
      <point x="414" y="-54"/>
      <point x="461" y="-13"/>
      <point x="516" y="28" type="curve"/>
      <point x="458" y="28" type="line"/>
      <point x="400" y="-4"/>
      <point x="342" y="-52"/>
      <point x="342" y="-124" type="curve" smooth="yes"/>
      <point x="342" y="-178"/>
      <point x="374" y="-220"/>
    </contour>
    <component base="e"/>
  </outline>
</glyph>
<glyph name="Lslash" format="2">
  <advance width="600"/>
  <unicode hex="0141"/>
  <anchor x="367" y="0" name="bottom"/>
  <anchor x="202" y="714" name="top"/>
  <anchor x="340" y="357" name="center"/>
  <anchor x="486" y="714" name="topright"/>
  <outline>
    <contour>
      <point x="89" y="213" type="line"/>
      <point x="401" y="394" type="line"/>
      <point x="365" y="457" type="line"/>
      <point x="54" y="273" type="line"/>
    </contour>
    <component base="L" xOffset="40"/>
  </outline>
</glyph>
<glyph name="lslash" format="2">
  <advance width="600"/>
  <unicode hex="0142"/>
  <anchor x="300" y="0" name="bottom"/>
  <anchor x="300" y="760" name="top"/>
  <anchor x="322" y="387" name="center"/>
  <anchor x="493" y="760" name="topright"/>
  <outline>
    <contour>
      <point x="180" y="237" type="line"/>
      <point x="489" y="428" type="line"/>
      <point x="452" y="487" type="line"/>
      <point x="144" y="296" type="line"/>
    </contour>
    <component base="l"/>
  </outline>
</glyph>
<glyph name="tbar" format="2">
  <advance width="600"/>
  <unicode hex="0167"/>
  <anchor x="323" y="0" name="bottom"/>
  <anchor x="255" y="679" name="top"/>
  <anchor x="252" y="268" name="center"/>
  <anchor x="580" y="679" name="topright"/>
  <outline>
    <contour>
      <point x="56" y="280" type="line"/>
      <point x="516" y="280" type="line"/>
      <point x="516" y="346" type="line"/>
      <point x="56" y="346" type="line"/>
    </contour>
    <component base="t"/>
  </outline>
</glyph>
<glyph name="Uogonek" format="2">
  <advance width="600"/>
  <unicode hex="0172"/>
  <anchor x="330" y="-220" name="bottom"/>
  <anchor x="300" y="714" name="top"/>
  <anchor x="540" y="10" name="ogonek"/>
  <anchor x="580" y="714" name="topright"/>
  <outline>
    <contour>
      <point x="337" y="-220" type="curve" smooth="yes"/>
      <point x="361" y="-220"/>
      <point x="379" y="-216"/>
      <point x="398" y="-211" type="curve"/>
      <point x="398" y="-155" type="line"/>
      <point x="387" y="-159"/>
      <point x="370" y="-161"/>
      <point x="356" y="-161" type="curve" smooth="yes"/>
      <point x="322" y="-161"/>
      <point x="305" y="-146"/>
      <point x="305" y="-113" type="curve" smooth="yes"/>
      <point x="305" y="-65"/>
      <point x="345" y="-28"/>
      <point x="415" y="14" type="curve"/>
      <point x="365" y="29" type="line"/>
      <point x="308" y="0"/>
      <point x="233" y="-48"/>
      <point x="233" y="-121" type="curve" smooth="yes"/>
      <point x="233" y="-179"/>
      <point x="265" y="-220"/>
    </contour>
    <component base="U"/>
  </outline>
</glyph>
<glyph name="uni0180" format="2">
  <advance width="600"/>
  <unicode hex="0180"/>
  <anchor x="300" y="0" name="bottom"/>
  <anchor x="273" y="760" name="top"/>
  <anchor x="580" y="760" name="topright"/>
  <outline>
    <contour>
      <point x="-1" y="605" type="line"/>
      <point x="366" y="605" type="line"/>
      <point x="366" y="671" type="line"/>
      <point x="-1" y="671" type="line"/>
    </contour>
    <component base="b"/>
  </outline>
</glyph>
<glyph name="uni0188" format="2">
  <advance width="600"/>
  <unicode hex="0188"/>
  <anchor x="300" y="0" name="bottom"/>
  <anchor x="300" y="765" name="top"/>
  <anchor x="580" y="536" name="topright"/>
  <outline>
    <contour>
      <point x="429" y="509" type="line"/>
      <point x="505" y="509" type="line"/>
      <point x="505" y="641" type="line" smooth="yes"/>
      <point x="505" y="673"/>
      <point x="522" y="689"/>
      <point x="552" y="689" type="curve" smooth="yes"/>
      <point x="574" y="689"/>
      <point x="595" y="683"/>
      <point x="604" y="679" type="curve"/>
      <point x="604" y="752" type="line"/>
      <point x="590" y="758"/>
      <point x="569" y="765"/>
      <point x="544" y="765" type="curve" smooth="yes"/>
      <point x="462" y="765"/>
      <point x="429" y="717"/>
      <point x="429" y="631" type="curve" smooth="yes"/>
    </contour>
    <component base="c"/>
  </outline>
</glyph>
<glyph name="uni0191" format="2">
  <advance width="600"/>
  <unicode hex="0191"/>
  <anchor x="172" y="0" name="bottom"/>
  <anchor x="403" y="714" name="top"/>
  <anchor x="600" y="714" name="topright"/>
  <outline>
    <contour>
      <point x="165" y="-15" type="curve" smooth="yes"/>
      <point x="267" y="-15"/>
      <point x="316" y="54"/>
      <point x="316" y="164" type="curve" smooth="yes"/>
      <point x="316" y="333" type="line"/>
      <point x="547" y="333" type="line"/>
      <point x="547" y="413" type="line"/>
      <point x="316" y="413" type="line"/>
      <point x="316" y="634" type="line"/>
      <point x="566" y="634" type="line"/>
      <point x="566" y="714" type="line"/>
      <point x="226" y="714" type="line"/>
      <point x="226" y="166" type="line" smooth="yes"/>
      <point x="226" y="103"/>
      <point x="206" y="62"/>
      <point x="162" y="62" type="curve" smooth="yes"/>
      <point x="133" y="62"/>
      <point x="114" y="83"/>
      <point x="114" y="115" type="curve" smooth="yes"/>
      <point x="114" y="129"/>
      <point x="116" y="142"/>
      <point x="119" y="152" type="curve"/>
      <point x="33" y="178" type="line"/>
      <point x="27" y="161"/>
      <point x="23" y="138"/>
      <point x="23" y="115" type="curve" smooth="yes"/>
      <point x="23" y="31"/>
      <point x="82" y="-15"/>
    </contour>
  </outline>
</glyph>
<glyph name="florin" format="2">
  <advance width="600"/>
  <unicode hex="0192"/>
  <anchor x="207" y="0" name="bottom"/>
  <anchor x="406" y="765" name="top"/>
  <anchor x="600" y="765" name="topright"/>
  <outline>
    <contour>
      <point x="200" y="-16" type="curve" smooth="yes"/>
      <point x="307" y="-16"/>
      <point x="351" y="53"/>
      <point x="351" y="148" type="curve" smooth="yes"/>
      <point x="351" y="461" type="line"/>
      <point x="533" y="461" type="line"/>
      <point x="533" y="536" type="line"/>
      <point x="351" y="536" type="line"/>
      <point x="351" y="585" type="line" smooth="yes"/>
      <point x="351" y="668"/>
      <point x="387" y="691"/>
      <point x="451" y="691" type="curve" smooth="yes"/>
      <point x="486" y="691"/>
      <point x="525" y="684"/>
      <point x="550" y="676" type="curve"/>
      <point x="570" y="745" type="line"/>
      <point x="540" y="755"/>
      <point x="500" y="765"/>
      <point x="446" y="765" type="curve" smooth="yes"/>
      <point x="335" y="765"/>
      <point x="261" y="724"/>
      <point x="261" y="597" type="curve" smooth="yes"/>
      <point x="261" y="536" type="line"/>
      <point x="96" y="523" type="line"/>
      <point x="96" y="461" type="line"/>
      <point x="261" y="461" type="line"/>
      <point x="261" y="149" type="line" smooth="yes"/>
      <point x="261" y="92"/>
      <point x="242" y="59"/>
      <point x="202" y="59" type="curve" smooth="yes"/>
      <point x="168" y="59"/>
      <point x="147" y="81"/>
      <point x="147" y="120" type="curve" smooth="yes"/>
      <point x="147" y="131"/>
      <point x="149" y="141"/>
      <point x="151" y="149" type="curve"/>
      <point x="63" y="169" type="line"/>
      <point x="59" y="156"/>
      <point x="56" y="138"/>
      <point x="56" y="120" type="curve" smooth="yes"/>
      <point x="56" y="42"/>
      <point x="107" y="-16"/>
    </contour>
  </outline>
</glyph>
<glyph name="uni019A" format="2">
  <advance width="600"/>
  <unicode hex="019A"/>
  <anchor x="300" y="0" name="bottom"/>
  <anchor x="300" y="760" name="top"/>
  <anchor x="322" y="387" name="center"/>
  <anchor x="493" y="760" name="topright"/>
  <outline>
    <contour>
      <point x="137" y="354" type="line"/>
      <point x="505" y="354" type="line"/>
      <point x="505" y="420" type="line"/>
      <point x="137" y="420" type="line"/>
    </contour>
    <component base="l"/>
  </outline>
</glyph>
<glyph name="uni019D" format="2">
  <advance width="600"/>
  <unicode hex="019D"/>
  <anchor x="300" y="-195" name="bottom"/>
  <anchor x="300" y="714" name="top"/>
  <anchor x="600" y="714" name="topright"/>
  <outline>
    <contour>
      <point x="18" y="-195" type="curve" smooth="yes"/>
      <point x="108" y="-195"/>
      <point x="157" y="-148"/>
      <point x="157" y="-38" type="curve" smooth="yes"/>
      <point x="157" y="193" type="line"/>
      <point x="70" y="193" type="line"/>
      <point x="70" y="-34" type="line" smooth="yes"/>
      <point x="70" y="-100"/>
      <point x="48" y="-120"/>
      <point x="7" y="-120" type="curve" smooth="yes"/>
      <point x="-10" y="-120"/>
      <point x="-25" y="-116"/>
      <point x="-38" y="-110" type="curve"/>
      <point x="-38" y="-182" type="line"/>
      <point x="-24" y="-190"/>
      <point x="-6" y="-195"/>
    </contour>
    <component base="N"/>
  </outline>
</glyph>
<glyph name="uni023E" format="2">
  <advance width="600"/>
  <unicode hex="023E"/>
  <anchor x="300" y="-75" name="bottom"/>
  <anchor x="300" y="760" name="top"/>
  <anchor x="300" y="357" name="center"/>
  <anchor x="580" y="714" name="topright"/>
  <outline>
    <contour>
      <point x="62" y="-75" type="line"/>
      <point x="132" y="-75" type="line"/>
      <point x="540" y="760" type="line"/>
      <point x="470" y="760" type="line"/>
    </contour>
    <component base="T"/>
  </outline>
</glyph>
<glyph name="uni0249" format="2">
  <advance width="600"/>
  <unicode hex="0249"/>
  <anchor x="300" y="-245" name="bottom"/>
  <anchor x="342" y="760" name="top"/>
  <anchor x="520" y="760" name="topright"/>
  <outline>
    <contour>
      <point x="171" y="225" type="line"/>
      <point x="519" y="225" type="line"/>
      <point x="519" y="296" type="line"/>
      <point x="171" y="296" type="line"/>
    </contour>
    <component base="j"/>
  </outline>
</glyph>
<glyph name="uni024C" format="2">
  <advance width="600"/>
  <unicode hex="024C"/>
  <anchor x="334" y="0" name="bottom"/>
  <anchor x="300" y="714" name="top"/>
  <anchor x="580" y="714" name="topright"/>
  <outline>
    <contour>
      <point x="0" y="292" type="line"/>
      <point x="197" y="292" type="line"/>
      <point x="197" y="370" type="line"/>
      <point x="0" y="370" type="line"/>
    </contour>
    <component base="R"/>
  </outline>
</glyph>
<glyph name="uni025F" format="2">
  <advance width="600"/>
  <unicode hex="025F"/>
  <anchor x="313" y="-239" name="bottom"/>
  <anchor x="331" y="536" name="top"/>
  <anchor x="520" y="536" name="topright"/>
  <outline>
    <contour>
      <point x="225" y="-240" type="curve" smooth="yes"/>
      <point x="330" y="-240"/>
      <point x="376" y="-180"/>
      <point x="376" y="-80" type="curve" smooth="yes"/>
      <point x="376" y="248" type="line"/>
      <point x="451" y="248" type="line"/>
      <point x="451" y="319" type="line"/>
      <point x="376" y="319" type="line"/>
      <point x="376" y="536" type="line"/>
      <point x="288" y="536" type="line"/>
      <point x="288" y="319" type="line"/>
      <point x="213" y="319" type="line"/>
      <point x="213" y="248" type="line"/>
      <point x="288" y="248" type="line"/>
      <point x="288" y="-83" type="line" smooth="yes"/>
      <point x="288" y="-148"/>
      <point x="257" y="-167"/>
      <point x="214" y="-167" type="curve" smooth="yes"/>
      <point x="188" y="-167"/>
      <point x="168" y="-163"/>
      <point x="148" y="-157" type="curve"/>
      <point x="148" y="-228" type="line"/>
      <point x="166" y="-235"/>
      <point x="191" y="-240"/>
    </contour>
  </outline>
</glyph>
<glyph name="uni0282" format="2">
  <advance width="600"/>
  <unicode hex="0282"/>
  <anchor x="310" y="-291" name="bottom"/>
  <anchor x="300" y="536" name="top"/>
  <anchor x="580" y="536" name="topright"/>
  <outline>
    <contour>
      <point x="253" y="-240" type="curve" smooth="yes"/>
      <point x="287" y="-240"/>
      <point x="317" y="-231"/>
      <point x="330" y="-225" type="curve"/>
      <point x="330" y="-157" type="line"/>
      <point x="314" y="-163"/>
      <point x="292" y="-168"/>
      <point x="269" y="-168" type="curve" smooth="yes"/>
      <point x="215" y="-168"/>
      <point x="188" y="-139"/>
      <point x="188" y="-72" type="curve" smooth="yes"/>
      <point x="188" y="9" type="line"/>
      <point x="105" y="72" type="line"/>
      <point x="105" y="-73" type="line" smooth="yes"/>
      <point x="105" y="-204"/>
      <point x="169" y="-240"/>
    </contour>
    <component base="s"/>
  </outline>
</glyph>
<glyph name="Archaicsampi" format="2">
  <advance width="600"/>
  <unicode hex="0372"/>
  <anchor x="300" y="0" name="bottom"/>
  <anchor x="300" y="714" name="top"/>
  <anchor x="300" y="357" name="center"/>
  <anchor x="580" y="714" name="topright"/>
  <outline>
    <contour>
      <point x="482" y="412" type="line"/>
      <point x="555" y="412" type="line"/>
      <point x="555" y="714" type="line"/>
      <point x="482" y="714" type="line"/>
    </contour>
    <contour>
      <point x="45" y="412" type="line"/>
      <point x="118" y="412" type="line"/>
      <point x="118" y="714" type="line"/>
      <point x="45" y="714" type="line"/>
    </contour>
    <component base="T"/>
  </outline>
</glyph>
<glyph name="Epsilontonos" format="2">
  <advance width="600"/>
  <unicode hex="0388"/>
  <anchor x="341" y="0" name="bottom"/>
  <anchor x="332" y="714" name="top"/>
  <anchor x="36" y="714" name="topleft"/>
  <outline>
    <contour>
      <point x="124" y="0" type="line"/>
      <point x="515" y="0" type="line"/>
      <point x="515" y="80" type="line"/>
      <point x="214" y="80" type="line"/>
      <point x="214" y="333" type="line"/>
      <point x="496" y="333" type="line"/>
      <point x="496" y="413" type="line"/>
      <point x="214" y="413" type="line"/>
      <point x="214" y="634" type="line"/>
      <point x="515" y="634" type="line"/>
      <point x="515" y="714" type="line"/>
      <point x="124" y="714" type="line"/>
    </contour>
    <component base="tonos" xOffset="-312"/>
  </outline>
</glyph>
<glyph name="Etatonos" format="2">
  <advance width="600"/>
  <unicode hex="0389"/>
  <anchor x="324" y="0" name="bottom"/>
  <anchor x="324" y="377" name="center"/>
  <anchor x="324" y="714" name="top"/>
  <anchor x="44" y="714" name="topleft"/>
  <outline>
    <contour>
      <point x="111" y="0" type="line"/>
      <point x="201" y="0" type="line"/>
      <point x="201" y="333" type="line"/>
      <point x="440" y="333" type="line"/>
      <point x="440" y="0" type="line"/>
      <point x="530" y="0" type="line"/>
      <point x="530" y="714" type="line"/>
      <point x="440" y="714" type="line"/>
      <point x="440" y="413" type="line"/>
      <point x="201" y="413" type="line"/>
      <point x="201" y="714" type="line"/>
      <point x="111" y="714" type="line"/>
    </contour>
    <component base="tonos" xOffset="-296"/>
  </outline>
</glyph>
<glyph name="KaiSymbol" format="2">
  <advance width="600"/>
  <unicode hex="03CF"/>
  <anchor x="310" y="0" name="bottom"/>
  <anchor x="300" y="714" name="top"/>
  <anchor x="580" y="714" name="topright"/>
  <outline>
    <contour>
      <point x="256" y="-240" type="curve" smooth="yes"/>
      <point x="422" y="-240"/>
      <point x="519" y="-161"/>
      <point x="550" y="0" type="curve"/>
      <point x="472" y="10" type="line"/>
      <point x="444" y="-100"/>
      <point x="384" y="-165"/>
      <point x="256" y="-165" type="curve" smooth="yes"/>
      <point x="182" y="-165"/>
      <point x="121" y="-145"/>
      <point x="71" y="-121" type="curve"/>
      <point x="71" y="-195" type="line"/>
      <point x="100" y="-210"/>
      <point x="173" y="-240"/>
    </contour>
    <component base="K"/>
  </outline>
</glyph>
<glyph name="uni03D9" format="2">
  <advance width="600"/>
  <unicode hex="03D9"/>
  <anchor x="300" y="-240" name="bottom"/>
  <anchor x="300" y="536" name="top"/>
  <anchor x="300" y="268" name="center"/>
  <anchor x="301" y="10" name="ogonek"/>
  <anchor x="580" y="536" name="topright"/>
  <outline>
    <contour>
      <point x="258" y="-240" type="line"/>
      <point x="346" y="-240" type="line"/>
      <point x="346" y="0" type="line"/>
      <point x="258" y="0" type="line"/>
    </contour>
    <component base="o"/>
  </outline>
</glyph>
<glyph name="afii10091" format="2">
  <advance width="600"/>
  <unicode hex="0449"/>
  <anchor x="300" y="-146" name="bottom"/>
  <anchor x="300" y="536" name="top"/>
  <outline>
    <contour>
      <point x="516" y="-186" type="line"/>
      <point x="600" y="-186" type="line"/>
      <point x="600" y="72" type="line"/>
      <point x="495" y="72" type="line"/>
      <point x="495" y="0" type="line"/>
      <point x="516" y="0" type="line"/>
    </contour>
    <component base="afii10090"/>
  </outline>
</glyph>
<glyph name="afii10099" format="2">
  <advance width="600"/>
  <unicode hex="0452"/>
  <anchor x="300" y="-240" name="bottom"/>
  <anchor x="300" y="760" name="top"/>
  <anchor x="300" y="268" name="center"/>
  <outline>
    <contour>
      <point x="395" y="-240" type="curve" smooth="yes"/>
      <point x="478" y="-240"/>
      <point x="525" y="-183"/>
      <point x="525" y="-81" type="curve" smooth="yes"/>
      <point x="525" y="344" type="line" smooth="yes"/>
      <point x="435" y="333" type="line"/>
      <point x="435" y="-83" type="line" smooth="yes"/>
      <point x="435" y="-144"/>
      <point x="415" y="-167"/>
      <point x="382" y="-167" type="curve" smooth="yes"/>
      <point x="367" y="-167"/>
      <point x="352" y="-163"/>
      <point x="337" y="-158" type="curve"/>
      <point x="337" y="-230" type="line"/>
      <point x="351" y="-236"/>
      <point x="372" y="-240"/>
    </contour>
    <component base="afii10108"/>
  </outline>
</glyph>
<glyph name="afii10101" format="2">
  <advance width="600"/>
  <unicode hex="0454"/>
  <anchor x="300" y="0" name="bottom"/>
  <anchor x="300" y="536" name="top"/>
  <anchor x="580" y="536" name="topright"/>
  <outline>
    <contour>
      <point x="162" y="242" type="line"/>
      <point x="424" y="242" type="line"/>
      <point x="424" y="311" type="line"/>
      <point x="162" y="311" type="line"/>
    </contour>
    <component base="c"/>
  </outline>
</glyph>
<glyph name="uni0472" format="2">
  <advance width="600"/>
  <unicode hex="0472"/>
  <anchor x="300" y="0" name="bottom"/>
  <anchor x="300" y="714" name="top"/>
  <anchor x="300" y="357" name="center"/>
  <anchor x="299" y="10" name="ogonek"/>
  <anchor x="20" y="714" name="topleft"/>
  <anchor x="600" y="714" name="topright"/>
  <outline>
    <contour>
      <point x="91" y="321" type="line"/>
      <point x="509" y="321" type="line"/>
      <point x="509" y="399" type="line"/>
      <point x="91" y="399" type="line"/>
    </contour>
    <component base="O"/>
  </outline>
</glyph>
<glyph name="uni0473" format="2">
  <advance width="600"/>
  <unicode hex="0473"/>
  <anchor x="300" y="0" name="bottom"/>
  <anchor x="300" y="536" name="top"/>
  <anchor x="300" y="268" name="center"/>
  <anchor x="301" y="10" name="ogonek"/>
  <anchor x="580" y="536" name="topright"/>
  <outline>
    <contour>
      <point x="94" y="233" type="line"/>
      <point x="512" y="233" type="line"/>
      <point x="512" y="311" type="line"/>
      <point x="94" y="311" type="line"/>
    </contour>
    <component base="o"/>
  </outline>
</glyph>
<glyph name="uni0488" format="2">
  <unicode hex="0488"/>
  <outline>
    <contour>
      <point x="-89" y="579" type="curve"/>
      <point x="-58" y="579" type="line"/>
      <point x="-55" y="614"/>
      <point x="-38" y="625"/>
      <point x="-4" y="625" type="curve" smooth="yes"/>
      <point x="23" y="625"/>
      <point x="45" y="612"/>
      <point x="49" y="579" type="curve"/>
      <point x="81" y="579" type="line"/>
      <point x="78" y="630"/>
      <point x="48" y="665"/>
      <point x="-4" y="665" type="curve" smooth="yes"/>
      <point x="-60" y="665"/>
      <point x="-86" y="632"/>
    </contour>
    <contour>
      <point x="81" y="422" type="curve"/>
      <point x="112" y="422" type="line"/>
      <point x="115" y="458"/>
      <point x="132" y="469"/>
      <point x="165" y="469" type="curve" smooth="yes"/>
      <point x="192" y="469"/>
      <point x="216" y="456"/>
      <point x="219" y="422" type="curve"/>
      <point x="251" y="422" type="line"/>
      <point x="248" y="473"/>
      <point x="218" y="509"/>
      <point x="165" y="509" type="curve" smooth="yes"/>
      <point x="110" y="509"/>
      <point x="83" y="475"/>
    </contour>
    <contour>
      <point x="131" y="236" type="curve"/>
      <point x="161" y="236" type="line"/>
      <point x="164" y="272"/>
      <point x="181" y="282"/>
      <point x="215" y="282" type="curve" smooth="yes"/>
      <point x="242" y="282"/>
      <point x="265" y="270"/>
      <point x="268" y="236" type="curve"/>
      <point x="300" y="236" type="line"/>
      <point x="297" y="287"/>
      <point x="268" y="322"/>
      <point x="215" y="322" type="curve" smooth="yes"/>
      <point x="160" y="322"/>
      <point x="133" y="289"/>
    </contour>
    <contour>
      <point x="81" y="44" type="curve"/>
      <point x="112" y="44" type="line"/>
      <point x="115" y="80"/>
      <point x="132" y="90"/>
      <point x="165" y="90" type="curve" smooth="yes"/>
      <point x="192" y="90"/>
      <point x="216" y="78"/>
      <point x="219" y="44" type="curve"/>
      <point x="251" y="44" type="line"/>
      <point x="248" y="95"/>
      <point x="218" y="131"/>
      <point x="165" y="131" type="curve" smooth="yes"/>
      <point x="110" y="131"/>
      <point x="83" y="97"/>
    </contour>
    <contour>
      <point x="-89" y="-109" type="curve"/>
      <point x="-58" y="-109" type="line"/>
      <point x="-55" y="-74"/>
      <point x="-38" y="-63"/>
      <point x="-4" y="-63" type="curve" smooth="yes"/>
      <point x="23" y="-63"/>
      <point x="45" y="-76"/>
      <point x="49" y="-109" type="curve"/>
      <point x="81" y="-109" type="line"/>
      <point x="78" y="-58"/>
      <point x="48" y="-23"/>
      <point x="-4" y="-23" type="curve" smooth="yes"/>
      <point x="-60" y="-23"/>
      <point x="-86" y="-57"/>
    </contour>
    <contour>
      <point x="-256" y="44" type="curve"/>
      <point x="-226" y="44" type="line"/>
      <point x="-222" y="80"/>
      <point x="-205" y="90"/>
      <point x="-172" y="90" type="curve" smooth="yes"/>
      <point x="-145" y="90"/>
      <point x="-121" y="78"/>
      <point x="-119" y="44" type="curve"/>
      <point x="-86" y="44" type="line"/>
      <point x="-90" y="95"/>
      <point x="-120" y="131"/>
      <point x="-172" y="131" type="curve" smooth="yes"/>
      <point x="-228" y="131"/>
      <point x="-254" y="97"/>
    </contour>
    <contour>
      <point x="-301" y="236" type="curve"/>
      <point x="-270" y="236" type="line"/>
      <point x="-267" y="272"/>
      <point x="-249" y="282"/>
      <point x="-217" y="282" type="curve" smooth="yes"/>
      <point x="-189" y="282"/>
      <point x="-166" y="270"/>
      <point x="-163" y="236" type="curve"/>
      <point x="-131" y="236" type="line"/>
      <point x="-134" y="287"/>
      <point x="-164" y="322"/>
      <point x="-217" y="322" type="curve" smooth="yes"/>
      <point x="-272" y="322"/>
      <point x="-298" y="289"/>
    </contour>
    <contour>
      <point x="-256" y="422" type="curve"/>
      <point x="-226" y="422" type="line"/>
      <point x="-222" y="458"/>
      <point x="-205" y="469"/>
      <point x="-172" y="469" type="curve" smooth="yes"/>
      <point x="-145" y="469"/>
      <point x="-121" y="456"/>
      <point x="-119" y="422" type="curve"/>
      <point x="-86" y="422" type="line"/>
      <point x="-90" y="473"/>
      <point x="-120" y="509"/>
      <point x="-172" y="509" type="curve" smooth="yes"/>
      <point x="-228" y="509"/>
      <point x="-254" y="475"/>
    </contour>
  </outline>
</glyph>
<glyph name="uni0489" format="2">
  <unicode hex="0489"/>
  <outline>
    <contour>
      <point x="217" y="449" type="line"/>
      <point x="256" y="478"/>
      <point x="314" y="516"/>
      <point x="362" y="546" type="curve"/>
      <point x="328" y="579" type="line"/>
      <point x="276" y="559"/>
      <point x="215" y="531"/>
      <point x="170" y="505" type="curve"/>
      <point x="169" y="497" type="line"/>
    </contour>
    <contour>
      <point x="-328" y="-60" type="line"/>
      <point x="-276" y="-40"/>
      <point x="-215" y="-12"/>
      <point x="-170" y="14" type="curve"/>
      <point x="-169" y="22" type="line"/>
      <point x="-217" y="70" type="line"/>
      <point x="-256" y="41"/>
      <point x="-314" y="3"/>
      <point x="-362" y="-27" type="curve"/>
    </contour>
    <contour>
      <point x="-294" y="216" type="curve"/>
      <point x="-287" y="221" type="line"/>
      <point x="-287" y="289" type="line"/>
      <point x="-335" y="296"/>
      <point x="-403" y="310"/>
      <point x="-458" y="323" type="curve"/>
      <point x="-458" y="276" type="line"/>
      <point x="-407" y="253"/>
      <point x="-344" y="229"/>
    </contour>
    <contour>
      <point x="-53" y="-188" type="curve"/>
      <point x="-6" y="-188" type="line"/>
      <point x="17" y="-137"/>
      <point x="41" y="-74"/>
      <point x="54" y="-24" type="curve"/>
      <point x="49" y="-17" type="line"/>
      <point x="-19" y="-17" type="line"/>
      <point x="-26" y="-65"/>
      <point x="-40" y="-133"/>
    </contour>
    <contour>
      <point x="286" y="-103" type="curve"/>
      <point x="319" y="-69" type="line"/>
      <point x="299" y="-17"/>
      <point x="271" y="44"/>
      <point x="245" y="89" type="curve"/>
      <point x="237" y="90" type="line"/>
      <point x="189" y="42" type="line"/>
      <point x="218" y="3"/>
      <point x="256" y="-55"/>
    </contour>
    <contour>
      <point x="-238" y="428" type="line"/>
      <point x="-190" y="476" type="line"/>
      <point x="-219" y="515"/>
      <point x="-257" y="573"/>
      <point x="-287" y="621" type="curve"/>
      <point x="-320" y="587" type="line"/>
      <point x="-300" y="535"/>
      <point x="-272" y="474"/>
      <point x="-246" y="429" type="curve"/>
    </contour>
    <contour>
      <point x="458" y="216" type="curve"/>
      <point x="458" y="263" type="line"/>
      <point x="407" y="286"/>
      <point x="344" y="310"/>
      <point x="294" y="323" type="curve"/>
      <point x="287" y="318" type="line"/>
      <point x="287" y="250" type="line"/>
      <point x="335" y="243"/>
      <point x="403" y="229"/>
    </contour>
    <contour>
      <point x="-48" y="557" type="line"/>
      <point x="20" y="557" type="line"/>
      <point x="27" y="605"/>
      <point x="41" y="673"/>
      <point x="54" y="728" type="curve"/>
      <point x="7" y="728" type="line"/>
      <point x="-16" y="677"/>
      <point x="-40" y="614"/>
      <point x="-53" y="564" type="curve"/>
    </contour>
  </outline>
</glyph>
<glyph name="uni048B" format="2">
  <advance width="600"/>
  <unicode hex="048B"/>
  <anchor x="300" y="-188" name="bottom"/>
  <anchor x="300" y="740" name="top"/>
  <anchor x="580" y="0" name="bottomright"/>
  <outline>
    <contour>
      <point x="447" y="-185" type="line"/>
      <point x="537" y="-185" type="line"/>
      <point x="600" y="74" type="line"/>
      <point x="481" y="74" type="line"/>
      <point x="478" y="0" type="line"/>
      <point x="508" y="0" type="line"/>
    </contour>
    <component base="afii10074"/>
    <component base="breve"/>
  </outline>
</glyph>
<glyph name="uni048C" format="2">
  <advance width="600"/>
  <unicode hex="048C"/>
  <anchor x="300" y="0" name="bottom"/>
  <anchor x="139" y="714" name="top"/>
  <outline>
    <contour>
      <point x="13" y="546" type="line"/>
      <point x="351" y="546" type="line"/>
      <point x="351" y="624" type="line"/>
      <point x="13" y="624" type="line"/>
    </contour>
    <component base="afii10046"/>
  </outline>
</glyph>
<glyph name="uni048E" format="2">
  <advance width="600"/>
  <unicode hex="048E"/>
  <anchor x="300" y="0" name="bottom"/>
  <anchor x="300" y="714" name="top"/>
  <anchor x="600" y="714" name="topright"/>
  <outline>
    <contour>
      <point x="480" y="203" type="line"/>
      <point x="531" y="246" type="line"/>
      <point x="365" y="472" type="line"/>
      <point x="310" y="430" type="line"/>
    </contour>
    <component base="P"/>
  </outline>
</glyph>
<glyph name="afii10098" format="2">
  <advance width="600"/>
  <unicode hex="0491"/>
  <anchor x="300" y="0" name="bottom"/>
  <anchor x="300" y="692" name="top"/>
  <anchor x="580" y="0" name="bottomright"/>
  <outline>
    <contour>
      <point x="421" y="464" type="line"/>
      <point x="503" y="464" type="line"/>
      <point x="503" y="692" type="line"/>
      <point x="421" y="692" type="line"/>
    </contour>
    <component base="afii10068"/>
  </outline>
</glyph>
<glyph name="uni0496" format="2">
  <advance width="600"/>
  <unicode hex="0496"/>
  <anchor x="300" y="-188" name="bottom"/>
  <anchor x="300" y="714" name="top"/>
  <anchor x="580" y="0" name="bottomright"/>
  <outline>
    <contour>
      <point x="518" y="-188" type="line"/>
      <point x="597" y="-188" type="line"/>
      <point x="597" y="80" type="line"/>
      <point x="509" y="80" type="line"/>
      <point x="518" y="0" type="line"/>
    </contour>
    <component base="afii10024"/>
  </outline>
</glyph>
<glyph name="uni049A" format="2">
  <advance width="600"/>
  <unicode hex="049A"/>
  <anchor x="300" y="-188" name="bottom"/>
  <anchor x="300" y="714" name="top"/>
  <anchor x="580" y="0" name="bottomright"/>
  <outline>
    <contour>
      <point x="489" y="-188" type="line"/>
      <point x="575" y="-188" type="line"/>
      <point x="575" y="80" type="line"/>
      <point x="467" y="80" type="line"/>
      <point x="489" y="0" type="line"/>
    </contour>
    <component base="afii10028"/>
  </outline>
</glyph>
<glyph name="uni049B" format="2">
  <advance width="600"/>
  <unicode hex="049B"/>
  <anchor x="310" y="-186" name="bottom"/>
  <anchor x="300" y="536" name="top"/>
  <anchor x="580" y="0" name="bottomright"/>
  <outline>
    <contour>
      <point x="498" y="-186" type="line"/>
      <point x="582" y="-186" type="line"/>
      <point x="582" y="74" type="line"/>
      <point x="482" y="74" type="line"/>
      <point x="498" y="0" type="line"/>
    </contour>
    <component base="afii10076"/>
  </outline>
</glyph>
<glyph name="uni04AD" format="2">
  <advance width="600"/>
  <unicode hex="04AD"/>
  <anchor x="300" y="-185" name="bottom"/>
  <anchor x="300" y="536" name="top"/>
  <anchor x="580" y="0" name="bottomright"/>
  <outline>
    <contour>
      <point x="323" y="-185" type="line"/>
      <point x="409" y="-185" type="line"/>
      <point x="409" y="73" type="line"/>
      <point x="310" y="73" type="line"/>
      <point x="273" y="0" type="line"/>
      <point x="323" y="0" type="line"/>
    </contour>
    <component base="afii10084"/>
  </outline>
</glyph>
<glyph name="uni04B1" format="2">
  <advance width="600"/>
  <unicode hex="04B1"/>
  <anchor x="300" y="-240" name="bottom"/>
  <anchor x="300" y="536" name="top"/>
  <outline>
    <contour>
      <point x="119" y="-67" type="line"/>
      <point x="479" y="-67" type="line"/>
      <point x="479" y="0" type="line"/>
      <point x="119" y="0" type="line"/>
    </contour>
    <component base="uni04AF"/>
  </outline>
</glyph>
<glyph name="uni04B2" format="2">
  <advance width="600"/>
  <unicode hex="04B2"/>
  <anchor x="300" y="-187" name="bottom"/>
  <anchor x="300" y="714" name="top"/>
  <anchor x="580" y="714" name="topright"/>
  <outline>
    <contour>
      <point x="491" y="-188" type="line"/>
      <point x="577" y="-188" type="line"/>
      <point x="577" y="80" type="line"/>
      <point x="481" y="80" type="line"/>
      <point x="481" y="0" type="line"/>
      <point x="491" y="0" type="line"/>
    </contour>
    <component base="X"/>
  </outline>
</glyph>
<glyph name="uni04B3" format="2">
  <advance width="600"/>
  <unicode hex="04B3"/>
  <anchor x="300" y="-188" name="bottom"/>
  <anchor x="300" y="536" name="top"/>
  <anchor x="580" y="536" name="topright"/>
  <outline>
    <contour>
      <point x="484" y="-186" type="line"/>
      <point x="570" y="-186" type="line"/>
      <point x="570" y="74" type="line"/>
      <point x="452" y="74" type="line"/>
      <point x="464" y="0" type="line"/>
      <point x="484" y="0" type="line"/>
    </contour>
    <component base="x"/>
  </outline>
</glyph>
<glyph name="uni04B8" format="2">
  <advance width="600"/>
  <unicode hex="04B8"/>
  <anchor x="300" y="0" name="bottom"/>
  <anchor x="300" y="714" name="top"/>
  <anchor x="580" y="0" name="bottomright"/>
  <outline>
    <contour>
      <point x="270" y="102" type="line"/>
      <point x="331" y="102" type="line"/>
      <point x="331" y="496" type="line"/>
      <point x="270" y="496" type="line"/>
    </contour>
    <component base="afii10041"/>
  </outline>
</glyph>
<glyph name="uni04BF" format="2">
  <advance width="600"/>
  <unicode hex="04BF"/>
  <anchor x="388" y="-240" name="bottom"/>
  <anchor x="372" y="536" name="top"/>
  <outline>
    <contour>
      <point x="344" y="-186" type="line"/>
      <point x="426" y="-186" type="line"/>
      <point x="426" y="20" type="line"/>
      <point x="344" y="20" type="line"/>
    </contour>
    <component base="uni04BD"/>
  </outline>
</glyph>
<glyph name="uni04C5" format="2">
  <advance width="600"/>
  <unicode hex="04C5"/>
  <anchor x="310" y="-240" name="bottom"/>
  <anchor x="300" y="714" name="top"/>
  <outline>
    <contour>
      <point x="438" y="-188" type="line"/>
      <point x="526" y="-188" type="line"/>
      <point x="598" y="71" type="line"/>
      <point x="471" y="71" type="line"/>
      <point x="471" y="0" type="line"/>
      <point x="505" y="0" type="line"/>
    </contour>
    <component base="afii10029"/>
  </outline>
</glyph>
<glyph name="uni04CD" format="2">
  <advance width="600"/>
  <unicode hex="04CD"/>
  <anchor x="300" y="-188" name="bottom"/>
  <anchor x="300" y="714" name="top"/>
  <anchor x="600" y="714" name="topright"/>
  <outline>
    <contour>
      <point x="440" y="-188" type="line"/>
      <point x="528" y="-188" type="line"/>
      <point x="600" y="71" type="line"/>
      <point x="473" y="71" type="line"/>
      <point x="473" y="0" type="line"/>
      <point x="507" y="0" type="line"/>
    </contour>
    <component base="M"/>
  </outline>
</glyph>
<glyph name="uni051F" format="2">
  <advance width="600"/>
  <unicode hex="051F"/>
  <anchor x="300" y="0" name="bottom"/>
  <anchor x="300" y="536" name="top"/>
  <anchor x="580" y="0" name="bottomright"/>
  <outline>
    <contour>
      <point x="449" y="272" type="line"/>
      <point x="498" y="325" type="line"/>
      <point x="280" y="536" type="line"/>
      <point x="230" y="483" type="line"/>
    </contour>
    <component base="afii10076"/>
  </outline>
</glyph>
<glyph name="uni0525" format="2">
  <advance width="600"/>
  <unicode hex="0525"/>
  <anchor x="300" y="-187" name="bottom"/>
  <anchor x="300" y="536" name="top"/>
  <anchor x="580" y="0" name="bottomright"/>
  <outline>
    <contour>
      <point x="517" y="-187" type="line"/>
      <point x="600" y="-187" type="line"/>
      <point x="600" y="72" type="line"/>
      <point x="464" y="72" type="line"/>
      <point x="464" y="0" type="line"/>
      <point x="517" y="0" type="line"/>
    </contour>
    <component base="afii10081"/>
  </outline>
</glyph>
<glyph name="uni052E" format="2">
  <advance width="600"/>
  <unicode hex="052E"/>
  <anchor x="318" y="-192" name="bottom"/>
  <anchor x="361" y="714" name="top"/>
  <outline>
    <contour>
      <point x="505" y="-192" type="line"/>
      <point x="592" y="-192" type="line"/>
      <point x="592" y="77" type="line"/>
      <point x="495" y="77" type="line"/>
      <point x="457" y="0" type="line"/>
      <point x="505" y="0" type="line"/>
    </contour>
    <component base="afii10029"/>
  </outline>
</glyph>
<glyph name="uni052F" format="2">
  <advance width="600"/>
  <unicode hex="052F"/>
  <anchor x="309" y="-187" name="bottom"/>
  <anchor x="347" y="536" name="top"/>
  <outline>
    <contour>
      <point x="517" y="-187" type="line"/>
      <point x="600" y="-187" type="line"/>
      <point x="600" y="72" type="line"/>
      <point x="464" y="72" type="line"/>
      <point x="464" y="0" type="line"/>
      <point x="517" y="0" type="line"/>
    </contour>
    <component base="afii10077"/>
  </outline>
</glyph>
<glyph name="uni1ABA" format="2">
  <unicode hex="1ABA"/>
  <anchor x="0" y="0" name="_bottom"/>
  <anchor x="0" y="-233" name="bottom"/>
  <outline>
    <contour>
      <point x="-30" y="-211" type="line"/>
      <point x="88" y="40" type="line"/>
      <point x="33" y="40" type="line"/>
      <point x="-78" y="-196" type="line"/>
    </contour>
    <contour>
      <point x="-41" y="-233" type="curve" smooth="yes"/>
      <point x="-14" y="-233"/>
      <point x="7" y="-214"/>
      <point x="7" y="-179" type="curve" smooth="yes"/>
      <point x="7" y="-143"/>
      <point x="-14" y="-124"/>
      <point x="-41" y="-124" type="curve" smooth="yes"/>
      <point x="-69" y="-124"/>
      <point x="-89" y="-142"/>
      <point x="-89" y="-179" type="curve" smooth="yes"/>
      <point x="-89" y="-216"/>
      <point x="-69" y="-233"/>
    </contour>
  </outline>
</glyph>
<glyph name="uni1D0C" format="2">
  <advance width="600"/>
  <unicode hex="1D0C"/>
  <anchor x="350" y="0" name="bottom"/>
  <anchor x="208" y="536" name="top"/>
  <outline>
    <contour>
      <point x="106" y="155" type="line"/>
      <point x="357" y="297" type="line"/>
      <point x="321" y="357" type="line"/>
      <point x="71" y="213" type="line"/>
    </contour>
    <component base="uni029F"/>
  </outline>
</glyph>
<glyph name="uni1D24" format="2">
  <advance width="569"/>
  <unicode hex="1D24"/>
  <anchor x="305" y="0" name="bottom"/>
  <anchor x="294" y="760" name="top"/>
  <outline>
    <contour>
      <point x="298" y="-11" type="curve" smooth="yes"/>
      <point x="369" y="-11"/>
      <point x="430" y="3"/>
      <point x="500" y="36" type="curve"/>
      <point x="467" y="103" type="line"/>
      <point x="414" y="77"/>
      <point x="357" y="63"/>
      <point x="305" y="63" type="curve" smooth="yes"/>
      <point x="216" y="63"/>
      <point x="160" y="103"/>
      <point x="160" y="174" type="curve" smooth="yes"/>
      <point x="160" y="246"/>
      <point x="214" y="292"/>
      <point x="346" y="330" type="curve"/>
      <point x="346" y="384" type="line"/>
      <point x="479" y="435"/>
      <point x="533" y="496"/>
      <point x="533" y="593" type="curve" smooth="yes"/>
      <point x="533" y="698"/>
      <point x="443" y="765"/>
      <point x="302" y="765" type="curve" smooth="yes"/>
      <point x="233" y="765"/>
      <point x="169" y="749"/>
      <point x="101" y="717" type="curve"/>
      <point x="133" y="649" type="line"/>
      <point x="186" y="675"/>
      <point x="244" y="689"/>
      <point x="293" y="689" type="curve" smooth="yes"/>
      <point x="384" y="689"/>
      <point x="440" y="650"/>
      <point x="440" y="582" type="curve" smooth="yes"/>
      <point x="440" y="507"/>
      <point x="382" y="463"/>
      <point x="254" y="425" type="curve"/>
      <point x="254" y="371" type="line"/>
      <point x="119" y="320"/>
      <point x="66" y="258"/>
      <point x="66" y="163" type="curve" smooth="yes"/>
      <point x="66" y="55"/>
      <point x="157" y="-11"/>
    </contour>
  </outline>
</glyph>
<glyph name="uni1D2F" format="2">
  <advance width="600"/>
  <unicode hex="1D2F"/>
  <anchor x="298.0" y="287.0" name="bottom"/>
  <anchor x="298.0" y="715.4" name="top"/>
  <anchor x="480.0" y="715.4" name="topright"/>
  <outline>
    <contour>
      <point x="106" y="487" type="line"/>
      <point x="494" y="487" type="line"/>
      <point x="494" y="534" type="line"/>
      <point x="106" y="534" type="line"/>
    </contour>
    <component base="B" xScale="0.65" yScale="0.6" xOffset="103" yOffset="287"/>
  </outline>
</glyph>
<glyph name="uni1D3B" format="2">
  <advance width="600"/>
  <unicode hex="1D3B"/>
  <anchor x="298" y="287" name="bottom"/>
  <anchor x="301" y="715" name="top"/>
  <anchor x="493" y="715" name="topright"/>
  <outline>
    <contour>
      <point x="150" y="287" type="line"/>
      <point x="220" y="287" type="line"/>
      <point x="398" y="660" type="line"/>
      <point x="400" y="660" type="line"/>
      <point x="397" y="615"/>
      <point x="392" y="571"/>
      <point x="392" y="526" type="curve" smooth="yes"/>
      <point x="392" y="287" type="line"/>
      <point x="449" y="287" type="line"/>
      <point x="449" y="715" type="line"/>
      <point x="371" y="715" type="line"/>
      <point x="202" y="358" type="line"/>
      <point x="200" y="358" type="line"/>
      <point x="205" y="405"/>
      <point x="206" y="440"/>
      <point x="206" y="489" type="curve" smooth="yes"/>
      <point x="206" y="715" type="line"/>
      <point x="150" y="715" type="line"/>
    </contour>
  </outline>
</glyph>
<glyph name="uni1D72" format="2">
  <advance width="600"/>
  <unicode hex="1D72"/>
  <anchor x="284" y="0" name="bottom"/>
  <anchor x="353" y="536" name="top"/>
  <anchor x="593" y="536" name="topright"/>
  <outline>
    <contour>
      <point x="105" y="195" type="curve"/>
      <point x="156" y="195" type="line"/>
      <point x="165" y="234"/>
      <point x="179" y="253"/>
      <point x="211" y="253" type="curve" smooth="yes"/>
      <point x="256" y="253"/>
      <point x="300" y="196"/>
      <point x="356" y="196" type="curve" smooth="yes"/>
      <point x="419" y="196"/>
      <point x="457" y="246"/>
      <point x="465" y="324" type="curve"/>
      <point x="415" y="324" type="line"/>
      <point x="405" y="285"/>
      <point x="391" y="266"/>
      <point x="360" y="266" type="curve" smooth="yes"/>
      <point x="318" y="266"/>
      <point x="271" y="323"/>
      <point x="215" y="323" type="curve" smooth="yes"/>
      <point x="152" y="323"/>
      <point x="113" y="274"/>
    </contour>
    <component base="r" xOffset="13"/>
  </outline>
</glyph>
<glyph name="uni1D76" format="2">
  <advance width="600"/>
  <unicode hex="1D76"/>
  <anchor x="310" y="0" name="bottom"/>
  <anchor x="310" y="536" name="top"/>
  <anchor x="580" y="536" name="topright"/>
  <outline>
    <contour>
      <point x="81" y="204" type="curve"/>
      <point x="132" y="204" type="line"/>
      <point x="141" y="243"/>
      <point x="155" y="262"/>
      <point x="197" y="262" type="curve" smooth="yes"/>
      <point x="252" y="262"/>
      <point x="336" y="205"/>
      <point x="402" y="205" type="curve" smooth="yes"/>
      <point x="475" y="205"/>
      <point x="513" y="255"/>
      <point x="521" y="333" type="curve"/>
      <point x="471" y="333" type="line"/>
      <point x="461" y="294"/>
      <point x="447" y="275"/>
      <point x="406" y="275" type="curve" smooth="yes"/>
      <point x="354" y="275"/>
      <point x="267" y="332"/>
      <point x="201" y="332" type="curve" smooth="yes"/>
      <point x="128" y="332"/>
      <point x="89" y="283"/>
    </contour>
    <component base="z"/>
  </outline>
</glyph>
<glyph name="uni1D7B" format="2">
  <advance width="600"/>
  <unicode hex="1D7B"/>
  <anchor x="300" y="0" name="bottom"/>
  <anchor x="300" y="536" name="top"/>
  <outline>
    <contour>
      <point x="147" y="248" type="line"/>
      <point x="453" y="248" type="line"/>
      <point x="453" y="319" type="line"/>
      <point x="147" y="319" type="line"/>
    </contour>
    <component base="uni026A"/>
  </outline>
</glyph>
<glyph name="uni1D7C" format="2">
  <advance width="600"/>
  <unicode hex="1D7C"/>
  <anchor x="393" y="0" name="bottom"/>
  <anchor x="300" y="536" name="top"/>
  <outline>
    <contour>
      <point x="145" y="268" type="line"/>
      <point x="451" y="268" type="line"/>
      <point x="451" y="339" type="line"/>
      <point x="145" y="339" type="line"/>
    </contour>
    <component base="iota"/>
  </outline>
</glyph>
<glyph name="uni1D7D" format="2">
  <advance width="600"/>
  <unicode hex="1D7D"/>
  <anchor x="310" y="-240" name="bottom"/>
  <anchor x="310" y="536" name="top"/>
  <anchor x="580" y="536" name="topright"/>
  <outline>
    <contour>
      <point x="0" y="249" type="line"/>
      <point x="600" y="249" type="line"/>
      <point x="600" y="319" type="line"/>
      <point x="0" y="319" type="line"/>
    </contour>
    <component base="p"/>
  </outline>
</glyph>
<glyph name="uni1D7E" format="2">
  <advance width="600"/>
  <unicode hex="1D7E"/>
  <anchor x="300" y="-1.0" name="bottom"/>
  <anchor x="300" y="536.108" name="top"/>
  <anchor x="585" y="536.108" name="topright"/>
  <outline>
    <contour>
      <point x="0" y="276" type="line"/>
      <point x="600" y="276" type="line"/>
      <point x="600" y="346" type="line"/>
      <point x="0" y="346" type="line"/>
    </contour>
    <component base="u.sc" yScale="0.939" yOffset="-1"/>
  </outline>
</glyph>
<glyph name="uni1D85" format="2">
  <advance width="600"/>
  <unicode hex="1D85"/>
  <anchor x="322" y="0" name="bottom"/>
  <anchor x="322" y="387" name="center"/>
  <anchor x="300" y="760" name="top"/>
  <anchor x="493" y="760" name="topright"/>
  <outline>
    <contour>
      <point x="366" y="-198" type="curve" smooth="yes"/>
      <point x="446" y="-198"/>
      <point x="483" y="-151"/>
      <point x="483" y="-65" type="curve" smooth="yes"/>
      <point x="483" y="56" type="line"/>
      <point x="377" y="56" type="line"/>
      <point x="377" y="0" type="line"/>
      <point x="407" y="0" type="line"/>
      <point x="407" y="-73" type="line" smooth="yes"/>
      <point x="407" y="-109"/>
      <point x="386" y="-128"/>
      <point x="356" y="-128" type="curve" smooth="yes"/>
      <point x="335" y="-128"/>
      <point x="317" y="-122"/>
      <point x="306" y="-118" type="curve"/>
      <point x="306" y="-186" type="line"/>
      <point x="319" y="-191"/>
      <point x="341" y="-198"/>
    </contour>
    <component base="l"/>
  </outline>
</glyph>
<glyph name="uni1D86" format="2">
  <advance width="600"/>
  <unicode hex="1D86"/>
  <anchor x="305" y="0" name="bottom"/>
  <anchor x="326" y="536" name="top"/>
  <anchor x="580" y="536" name="topright"/>
  <outline>
    <contour>
      <point x="486" y="-198" type="curve" smooth="yes"/>
      <point x="562" y="-198"/>
      <point x="600" y="-151"/>
      <point x="600" y="-65" type="curve" smooth="yes"/>
      <point x="600" y="76" type="line"/>
      <point x="494" y="76" type="line"/>
      <point x="494" y="0" type="line"/>
      <point x="524" y="0" type="line"/>
      <point x="524" y="-73" type="line" smooth="yes"/>
      <point x="524" y="-109"/>
      <point x="504" y="-128"/>
      <point x="471" y="-128" type="curve" smooth="yes"/>
      <point x="453" y="-128"/>
      <point x="434" y="-122"/>
      <point x="423" y="-118" type="curve"/>
      <point x="423" y="-186" type="line"/>
      <point x="436" y="-191"/>
      <point x="457" y="-198"/>
    </contour>
    <component base="m"/>
  </outline>
</glyph>
<glyph name="uni1D8B" format="2">
  <advance width="600"/>
  <unicode hex="1D8B"/>
  <anchor x="224" y="-240" name="bottom"/>
  <anchor x="396" y="763" name="top"/>
  <outline>
    <contour>
      <point x="297" y="0" type="line"/>
      <point x="461" y="0" type="line"/>
      <point x="461" y="76" type="line"/>
      <point x="297" y="76" type="line"/>
    </contour>
    <component base="uni0283"/>
    <component base="cyrillicbighooklc" xOffset="160"/>
  </outline>
</glyph>
<glyph name="uni1D8C" format="2">
  <advance width="600"/>
  <unicode hex="1D8C"/>
  <anchor x="300" y="0" name="bottom"/>
  <anchor x="300" y="536" name="top"/>
  <anchor x="580" y="536" name="topright"/>
  <outline>
    <contour>
      <point x="317" y="0" type="line"/>
      <point x="430" y="0" type="line"/>
      <point x="430" y="76" type="line"/>
      <point x="317" y="76" type="line"/>
    </contour>
    <component base="v"/>
    <component base="cyrillicbighooklc" xOffset="130"/>
  </outline>
</glyph>
<glyph name="uni1D8F" format="2">
  <advance width="600"/>
  <unicode hex="1D8F"/>
  <anchor x="300" y="0" name="bottom"/>
  <anchor x="540" y="10" name="ogonek"/>
  <anchor x="305" y="536" name="top"/>
  <anchor x="580" y="536" name="topright"/>
  <outline>
    <contour>
      <point x="595" y="-198" type="curve" smooth="yes"/>
      <point x="618" y="-198"/>
      <point x="645" y="-194"/>
      <point x="658" y="-186" type="curve"/>
      <point x="658" y="-117" type="line"/>
      <point x="648" y="-121"/>
      <point x="629" y="-126"/>
      <point x="611" y="-126" type="curve" smooth="yes"/>
      <point x="578" y="-126"/>
      <point x="560" y="-108"/>
      <point x="560" y="-62" type="curve" smooth="yes"/>
      <point x="560" y="75" type="line"/>
      <point x="451" y="75" type="line"/>
      <point x="451" y="0" type="line"/>
      <point x="477" y="0" type="line"/>
      <point x="477" y="-63" type="line" smooth="yes"/>
      <point x="477" y="-161"/>
      <point x="526" y="-198"/>
    </contour>
    <component base="a"/>
  </outline>
</glyph>
<glyph name="uni1D91" format="2">
  <advance width="600"/>
  <unicode hex="1D91"/>
  <anchor x="300" y="0" name="bottom"/>
  <anchor x="300" y="765" name="top"/>
  <outline>
    <contour>
      <point x="555" y="-198" type="curve" smooth="yes"/>
      <point x="578" y="-198"/>
      <point x="605" y="-194"/>
      <point x="618" y="-186" type="curve"/>
      <point x="618" y="-117" type="line"/>
      <point x="608" y="-121"/>
      <point x="589" y="-126"/>
      <point x="571" y="-126" type="curve" smooth="yes"/>
      <point x="538" y="-126"/>
      <point x="520" y="-108"/>
      <point x="520" y="-62" type="curve" smooth="yes"/>
      <point x="520" y="53" type="line"/>
      <point x="437" y="93" type="line"/>
      <point x="437" y="-63" type="line" smooth="yes"/>
      <point x="437" y="-161"/>
      <point x="486" y="-198"/>
    </contour>
    <component base="uni0257"/>
  </outline>
</glyph>
<glyph name="uni1D92" format="2">
  <advance width="600"/>
  <unicode hex="1D92"/>
  <anchor x="310" y="0" name="bottom"/>
  <anchor x="306" y="10" name="ogonek"/>
  <anchor x="304" y="536" name="top"/>
  <anchor x="580" y="536" name="topright"/>
  <outline>
    <contour>
      <point x="550" y="-198" type="curve" smooth="yes"/>
      <point x="575" y="-198"/>
      <point x="601" y="-194"/>
      <point x="614" y="-186" type="curve"/>
      <point x="614" y="-117" type="line"/>
      <point x="604" y="-121"/>
      <point x="584" y="-126"/>
      <point x="568" y="-126" type="curve" smooth="yes"/>
      <point x="534" y="-126"/>
      <point x="516" y="-109"/>
      <point x="516" y="-62" type="curve" smooth="yes"/>
      <point x="516" y="107" type="line"/>
      <point x="437" y="10" type="line"/>
      <point x="437" y="-63" type="line" smooth="yes"/>
      <point x="437" y="-162"/>
      <point x="484" y="-198"/>
    </contour>
    <component base="e"/>
  </outline>
</glyph>
<glyph name="uni1D94" format="2">
  <advance width="600"/>
  <unicode hex="1D94"/>
  <anchor x="300" y="0" name="bottom"/>
  <anchor x="300" y="536" name="top"/>
  <outline>
    <contour>
      <point x="188" y="-198" type="curve" smooth="yes"/>
      <point x="213" y="-198"/>
      <point x="239" y="-194"/>
      <point x="252" y="-186" type="curve"/>
      <point x="252" y="-117" type="line"/>
      <point x="242" y="-121"/>
      <point x="222" y="-126"/>
      <point x="206" y="-126" type="curve" smooth="yes"/>
      <point x="172" y="-126"/>
      <point x="154" y="-109"/>
      <point x="154" y="-62" type="curve" smooth="yes"/>
      <point x="154" y="50" type="line"/>
      <point x="75" y="84" type="line"/>
      <point x="75" y="-63" type="line" smooth="yes"/>
      <point x="75" y="-162"/>
      <point x="122" y="-198"/>
    </contour>
    <component base="afii10073"/>
  </outline>
</glyph>
<glyph name="uni1D96" format="2">
  <advance width="600"/>
  <unicode hex="1D96"/>
  <anchor x="321" y="0" name="bottom"/>
  <anchor x="320" y="283" name="center"/>
  <anchor x="307" y="760" name="top"/>
  <anchor x="498" y="760" name="topright"/>
  <outline>
    <contour>
      <point x="512" y="-198" type="curve" smooth="yes"/>
      <point x="537" y="-198"/>
      <point x="563" y="-194"/>
      <point x="576" y="-186" type="curve"/>
      <point x="576" y="-117" type="line"/>
      <point x="566" y="-121"/>
      <point x="546" y="-126"/>
      <point x="530" y="-126" type="curve" smooth="yes"/>
      <point x="496" y="-126"/>
      <point x="478" y="-109"/>
      <point x="478" y="-62" type="curve" smooth="yes"/>
      <point x="478" y="53" type="line"/>
      <point x="399" y="10" type="line"/>
      <point x="399" y="-63" type="line" smooth="yes"/>
      <point x="399" y="-162"/>
      <point x="446" y="-198"/>
    </contour>
    <component base="i"/>
  </outline>
</glyph>
<glyph name="uni1D99" format="2">
  <advance width="600"/>
  <unicode hex="1D99"/>
  <anchor x="300" y="0" name="bottom"/>
  <anchor x="540" y="10" name="ogonek"/>
  <anchor x="300" y="536" name="top"/>
  <anchor x="580" y="536" name="topright"/>
  <outline>
    <contour>
      <point x="621" y="-198" type="curve" smooth="yes"/>
      <point x="646" y="-198"/>
      <point x="672" y="-194"/>
      <point x="685" y="-186" type="curve"/>
      <point x="685" y="-117" type="line"/>
      <point x="675" y="-121"/>
      <point x="655" y="-126"/>
      <point x="639" y="-126" type="curve" smooth="yes"/>
      <point x="605" y="-126"/>
      <point x="587" y="-109"/>
      <point x="587" y="-62" type="curve" smooth="yes"/>
      <point x="587" y="73" type="line"/>
      <point x="468" y="73" type="line"/>
      <point x="471" y="0" type="line"/>
      <point x="508" y="0" type="line"/>
      <point x="508" y="-63" type="line" smooth="yes"/>
      <point x="508" y="-162"/>
      <point x="555" y="-198"/>
    </contour>
    <component base="u"/>
  </outline>
</glyph>
<glyph name="longsdiagonalstroke" format="2">
  <advance width="600"/>
  <unicode hex="1E9C"/>
  <anchor x="267" y="0" name="bottom"/>
  <anchor x="300" y="765" name="top"/>
  <outline>
    <contour>
      <point x="144" y="346" type="line"/>
      <point x="420" y="498" type="line"/>
      <point x="388" y="554" type="line"/>
      <point x="113" y="402" type="line"/>
    </contour>
    <component base="longs"/>
  </outline>
</glyph>
<glyph name="longshighstroke" format="2">
  <advance width="600"/>
  <unicode hex="1E9D"/>
  <anchor x="269" y="0" name="bottom"/>
  <anchor x="300" y="765" name="top"/>
  <outline>
    <contour>
      <point x="112" y="464" type="line"/>
      <point x="418" y="464" type="line"/>
      <point x="418" y="536" type="line"/>
      <point x="112" y="536" type="line"/>
    </contour>
    <component base="longs"/>
  </outline>
</glyph>
<glyph name="uni1F29" format="2">
  <advance width="600"/>
  <unicode hex="1F29"/>
  <anchor x="341" y="0" name="bottom"/>
  <anchor x="341" y="357" name="center"/>
  <anchor x="341" y="714" name="top"/>
  <anchor x="40" y="714" name="topleft"/>
  <outline>
    <contour>
      <point x="152" y="0" type="line"/>
      <point x="242" y="0" type="line"/>
      <point x="242" y="333" type="line"/>
      <point x="440" y="333" type="line"/>
      <point x="440" y="0" type="line"/>
      <point x="530" y="0" type="line"/>
      <point x="530" y="714" type="line"/>
      <point x="440" y="714" type="line"/>
      <point x="440" y="413" type="line"/>
      <point x="242" y="413" type="line"/>
      <point x="242" y="714" type="line"/>
      <point x="152" y="714" type="line"/>
    </contour>
    <component base="uni1FFE" xOffset="-252" yOffset="-50"/>
  </outline>
</glyph>
<glyph name="uni1F39" format="2">
  <advance width="600"/>
  <unicode hex="1F39"/>
  <anchor x="359" y="0" name="bottom"/>
  <anchor x="359" y="714" name="top"/>
  <outline>
    <contour>
      <point x="167" y="0" type="line"/>
      <point x="547" y="0" type="line"/>
      <point x="547" y="62" type="line"/>
      <point x="401" y="75" type="line"/>
      <point x="401" y="639" type="line"/>
      <point x="547" y="652" type="line"/>
      <point x="547" y="714" type="line"/>
      <point x="167" y="714" type="line"/>
      <point x="167" y="652" type="line"/>
      <point x="311" y="639" type="line"/>
      <point x="311" y="75" type="line"/>
      <point x="167" y="62" type="line"/>
    </contour>
    <component base="uni1FFE" xOffset="-233" yOffset="-50"/>
  </outline>
</glyph>
<glyph name="uni1F3F" format="2">
  <advance width="600"/>
  <unicode hex="1F3F"/>
  <anchor x="425" y="0" name="bottom"/>
  <anchor x="425" y="714" name="top"/>
  <outline>
    <contour>
      <point x="274" y="0" type="line"/>
      <point x="574" y="0" type="line"/>
      <point x="574" y="62" type="line"/>
      <point x="468" y="75" type="line"/>
      <point x="468" y="639" type="line"/>
      <point x="574" y="652" type="line"/>
      <point x="574" y="714" type="line"/>
      <point x="274" y="714" type="line"/>
      <point x="274" y="652" type="line"/>
      <point x="378" y="639" type="line"/>
      <point x="378" y="75" type="line"/>
      <point x="274" y="62" type="line"/>
    </contour>
    <component base="uni1FDF" xOffset="-176" yOffset="-50"/>
  </outline>
</glyph>
<glyph name="uni1F59" format="2">
  <advance width="600"/>
  <unicode hex="1F59"/>
  <anchor x="361" y="0" name="bottom"/>
  <anchor x="361" y="714" name="top"/>
  <outline>
    <contour>
      <point x="317" y="0" type="line"/>
      <point x="403" y="0" type="line"/>
      <point x="403" y="278" type="line"/>
      <point x="585" y="714" type="line"/>
      <point x="489" y="714" type="line"/>
      <point x="361" y="363" type="line"/>
      <point x="234" y="714" type="line"/>
      <point x="135" y="714" type="line"/>
      <point x="317" y="278" type="line"/>
    </contour>
    <component base="uni1FFE" xOffset="-260" yOffset="-50"/>
  </outline>
</glyph>
<glyph name="uni1FC8" format="2">
  <advance width="600"/>
  <unicode hex="1FC8"/>
  <anchor x="365" y="0" name="bottom"/>
  <anchor x="356" y="714" name="top"/>
  <anchor x="60" y="714" name="topleft"/>
  <outline>
    <contour>
      <point x="175" y="0" type="line"/>
      <point x="515" y="0" type="line"/>
      <point x="515" y="80" type="line"/>
      <point x="265" y="80" type="line"/>
      <point x="265" y="333" type="line"/>
      <point x="496" y="333" type="line"/>
      <point x="496" y="413" type="line"/>
      <point x="265" y="413" type="line"/>
      <point x="265" y="634" type="line"/>
      <point x="515" y="634" type="line"/>
      <point x="515" y="714" type="line"/>
      <point x="175" y="714" type="line"/>
    </contour>
    <component base="uni1FEF" xOffset="-191" yOffset="-50"/>
  </outline>
</glyph>
<glyph name="uni1FEF" format="2">
  <advance width="600"/>
  <unicode hex="1FEF"/>
  <anchor x="300" y="536" name="_top"/>
  <anchor x="300" y="764" name="top"/>
  <outline>
    <contour>
      <point x="288" y="606" type="curve"/>
      <point x="330" y="606" type="line"/>
      <point x="330" y="618" type="line"/>
      <point x="315" y="658"/>
      <point x="295" y="718"/>
      <point x="285" y="764" type="curve"/>
      <point x="189" y="764" type="line"/>
      <point x="189" y="754" type="line"/>
      <point x="210" y="712"/>
      <point x="250" y="653"/>
    </contour>
  </outline>
</glyph>
<glyph name="uni1FFD" format="2">
  <advance width="600"/>
  <unicode hex="1FFD"/>
  <anchor x="300" y="536" name="_top"/>
  <anchor x="300" y="764" name="top"/>
  <outline>
    <contour>
      <point x="269" y="606" type="line"/>
      <point x="311" y="606" type="line"/>
      <point x="349" y="653"/>
      <point x="389" y="712"/>
      <point x="410" y="754" type="curve"/>
      <point x="410" y="764" type="line"/>
      <point x="314" y="764" type="line"/>
      <point x="304" y="718"/>
      <point x="284" y="658"/>
      <point x="269" y="618" type="curve"/>
    </contour>
  </outline>
</glyph>
<glyph name="plussuperior" format="2">
  <advance width="600"/>
  <unicode hex="207A"/>
  <outline>
    <contour>
      <point x="274" y="318" type="line"/>
      <point x="326" y="318" type="line"/>
      <point x="326" y="429" type="line"/>
      <point x="434" y="429" type="line"/>
      <point x="434" y="481" type="line"/>
      <point x="326" y="481" type="line"/>
      <point x="326" y="592" type="line"/>
      <point x="274" y="592" type="line"/>
      <point x="274" y="481" type="line"/>
      <point x="166" y="481" type="line"/>
      <point x="166" y="429" type="line"/>
      <point x="274" y="429" type="line"/>
    </contour>
  </outline>
</glyph>
<glyph name="equalsuperior" format="2">
  <advance width="600"/>
  <unicode hex="207C"/>
  <outline>
    <contour>
      <point x="166" y="485" type="line"/>
      <point x="434" y="485" type="line"/>
      <point x="434" y="536" type="line"/>
      <point x="166" y="536" type="line"/>
    </contour>
    <contour>
      <point x="166" y="373" type="line"/>
      <point x="434" y="373" type="line"/>
      <point x="434" y="425" type="line" smooth="yes"/>
      <point x="166" y="425" type="line"/>
    </contour>
  </outline>
</glyph>
<glyph name="parenleftsuperior" format="2">
  <advance width="600"/>
  <unicode hex="207D"/>
  <outline>
    <contour>
      <point x="313" y="231" type="curve"/>
      <point x="379" y="231" type="line"/>
      <point x="315" y="304"/>
      <point x="283" y="402"/>
      <point x="283" y="499" type="curve" smooth="yes"/>
      <point x="283" y="599"/>
      <point x="316" y="695"/>
      <point x="379" y="767" type="curve"/>
      <point x="313" y="767" type="line"/>
      <point x="253" y="698"/>
      <point x="221" y="610"/>
      <point x="221" y="499" type="curve" smooth="yes"/>
      <point x="221" y="388"/>
      <point x="255" y="295"/>
    </contour>
  </outline>
</glyph>
<glyph name="parenrightsuperior" format="2">
  <advance width="600"/>
  <unicode hex="207E"/>
  <outline>
    <contour>
      <point x="221" y="231" type="curve"/>
      <point x="287" y="231" type="line"/>
      <point x="345" y="300"/>
      <point x="379" y="389"/>
      <point x="379" y="501" type="curve" smooth="yes"/>
      <point x="379" y="604"/>
      <point x="347" y="698"/>
      <point x="287" y="767" type="curve"/>
      <point x="221" y="767" type="line"/>
      <point x="284" y="695"/>
      <point x="317" y="600"/>
      <point x="317" y="500" type="curve" smooth="yes"/>
      <point x="317" y="403"/>
      <point x="286" y="304"/>
    </contour>
  </outline>
</glyph>
<glyph name="uni20A1" format="2">
  <advance width="600"/>
  <unicode hex="20A1"/>
  <anchor x="351" y="0" name="bottom"/>
  <anchor x="359" y="714" name="top"/>
  <anchor x="580" y="714" name="topright"/>
  <outline>
    <contour>
      <point x="297" y="-58" type="line"/>
      <point x="352" y="-58" type="line"/>
      <point x="528" y="759" type="line"/>
      <point x="473" y="759" type="line"/>
    </contour>
    <contour>
      <point x="163" y="-58" type="line"/>
      <point x="218" y="-58" type="line"/>
      <point x="394" y="759" type="line"/>
      <point x="339" y="759" type="line"/>
    </contour>
    <component base="C"/>
  </outline>
</glyph>
<glyph name="uni20A5" format="2">
  <advance width="600"/>
  <unicode hex="20A5"/>
  <anchor x="305" y="0" name="bottom"/>
  <anchor x="326" y="536" name="top"/>
  <anchor x="580" y="536" name="topright"/>
  <outline>
    <contour>
      <point x="78" y="-110" type="line"/>
      <point x="148" y="-110" type="line"/>
      <point x="509" y="666" type="line"/>
      <point x="439" y="666" type="line"/>
    </contour>
    <component base="m"/>
  </outline>
</glyph>
<glyph name="uni20A6" format="2">
  <advance width="600"/>
  <unicode hex="20A6"/>
  <anchor x="293.8" y="0" name="bottom"/>
  <anchor x="298.38" y="714" name="top"/>
  <anchor x="568.6" y="714" name="topright"/>
  <outline>
    <contour>
      <point x="10" y="403" type="line"/>
      <point x="590" y="403" type="line"/>
      <point x="590" y="467" type="line"/>
      <point x="10" y="467" type="line"/>
    </contour>
    <contour>
      <point x="10" y="257" type="line"/>
      <point x="590" y="257" type="line"/>
      <point x="590" y="321" type="line"/>
      <point x="10" y="321" type="line"/>
    </contour>
    <component base="N" xScale="0.916" xOffset="19"/>
  </outline>
</glyph>
<glyph name="uni20A9" format="2">
  <advance width="600"/>
  <unicode hex="20A9"/>
  <outline>
    <contour>
      <point x="127" y="0" type="line"/>
      <point x="207" y="0" type="line"/>
      <point x="248" y="259" type="line"/>
      <point x="355" y="259" type="line"/>
      <point x="398" y="0" type="line"/>
      <point x="479" y="0" type="line"/>
      <point x="516" y="259" type="line"/>
      <point x="592" y="259" type="line"/>
      <point x="592" y="319" type="line"/>
      <point x="526" y="319" type="line"/>
      <point x="538" y="405" type="line"/>
      <point x="592" y="405" type="line"/>
      <point x="592" y="465" type="line"/>
      <point x="548" y="465" type="line"/>
      <point x="585" y="714" type="line"/>
      <point x="514" y="714" type="line"/>
      <point x="481" y="465" type="line"/>
      <point x="384" y="465" type="line"/>
      <point x="342" y="714" type="line"/>
      <point x="260" y="714" type="line"/>
      <point x="218" y="465" type="line"/>
      <point x="122" y="465" type="line"/>
      <point x="87" y="714" type="line"/>
      <point x="15" y="714" type="line"/>
      <point x="54" y="465" type="line"/>
      <point x="8" y="465" type="line"/>
      <point x="8" y="405" type="line"/>
      <point x="64" y="405" type="line"/>
      <point x="76" y="319" type="line"/>
      <point x="8" y="319" type="line"/>
      <point x="8" y="259" type="line"/>
      <point x="87" y="259" type="line"/>
    </contour>
    <contour>
      <point x="168" y="108" type="line"/>
      <point x="150" y="259" type="line"/>
      <point x="187" y="259" type="line"/>
    </contour>
    <contour>
      <point x="143" y="319" type="line"/>
      <point x="132" y="405" type="line"/>
      <point x="207" y="405" type="line"/>
      <point x="197" y="319" type="line"/>
    </contour>
    <contour>
      <point x="437" y="104" type="line"/>
      <point x="419" y="259" type="line"/>
      <point x="454" y="259" type="line"/>
    </contour>
    <contour>
      <point x="259" y="319" type="line"/>
      <point x="271" y="405" type="line"/>
      <point x="332" y="405" type="line"/>
      <point x="344" y="319" type="line"/>
    </contour>
    <contour>
      <point x="408" y="319" type="line"/>
      <point x="395" y="405" type="line"/>
      <point x="472" y="405" type="line"/>
      <point x="463" y="319" type="line"/>
    </contour>
    <contour>
      <point x="281" y="465" type="line"/>
      <point x="301" y="620" type="line"/>
      <point x="322" y="465" type="line"/>
    </contour>
  </outline>
</glyph>
<glyph name="uni20AE" format="2">
  <advance width="600"/>
  <unicode hex="20AE"/>
  <anchor x="300" y="0" name="bottom"/>
  <anchor x="300" y="357" name="center"/>
  <anchor x="300" y="714" name="top"/>
  <anchor x="580" y="714" name="topright"/>
  <outline>
    <contour>
      <point x="133" y="262" type="line"/>
      <point x="493" y="499" type="line"/>
      <point x="457" y="552" type="line"/>
      <point x="97" y="315" type="line"/>
    </contour>
    <contour>
      <point x="133" y="84" type="line"/>
      <point x="493" y="321" type="line"/>
      <point x="457" y="374" type="line"/>
      <point x="97" y="137" type="line"/>
    </contour>
    <component base="T"/>
  </outline>
</glyph>
<glyph name="uni20B5" format="2">
  <advance width="600"/>
  <unicode hex="20B5"/>
  <anchor x="351" y="0" name="bottom"/>
  <anchor x="359" y="714" name="top"/>
  <anchor x="580" y="714" name="topright"/>
  <outline>
    <contour>
      <point x="331" y="-80" type="line"/>
      <point x="395" y="-80" type="line"/>
      <point x="395" y="759" type="line"/>
      <point x="331" y="759" type="line"/>
    </contour>
    <component base="C"/>
  </outline>
</glyph>
<glyph name="accountof" format="2">
  <advance width="600"/>
  <unicode hex="2100"/>
  <anchor x="140" y="388" name="bottom"/>
  <anchor x="144" y="722" name="top"/>
  <outline>
    <contour>
      <point x="500" y="-15" type="curve" smooth="yes"/>
      <point x="540" y="-15"/>
      <point x="568" y="-8"/>
      <point x="594" y="6" type="curve"/>
      <point x="594" y="67" type="line"/>
      <point x="565" y="54"/>
      <point x="534" y="44"/>
      <point x="504" y="44" type="curve" smooth="yes"/>
      <point x="442" y="44"/>
      <point x="412" y="84"/>
      <point x="412" y="156" type="curve" smooth="yes"/>
      <point x="412" y="228"/>
      <point x="442" y="265"/>
      <point x="503" y="265" type="curve" smooth="yes"/>
      <point x="529" y="265"/>
      <point x="555" y="259"/>
      <point x="580" y="248" type="curve"/>
      <point x="600" y="304" type="line"/>
      <point x="576" y="316"/>
      <point x="539" y="325"/>
      <point x="504" y="325" type="curve" smooth="yes"/>
      <point x="411" y="325"/>
      <point x="341" y="274"/>
      <point x="341" y="156" type="curve" smooth="yes"/>
      <point x="341" y="38"/>
      <point x="408" y="-15"/>
    </contour>
    <component base="ordfeminine" xOffset="-152"/>
    <component base="fraction" xOffset="330"/>
  </outline>
</glyph>
<glyph name="planckconstantovertwopi" format="2">
  <advance width="600"/>
  <unicode hex="210F"/>
  <outline>
    <contour>
      <point x="43" y="604" type="line"/>
      <point x="435" y="604" type="line"/>
      <point x="444" y="670" type="line"/>
      <point x="52" y="670" type="line"/>
    </contour>
    <component base="planckconstant"/>
  </outline>
</glyph>
<glyph name="notequal" format="2">
  <advance width="600"/>
  <unicode hex="2260"/>
  <outline>
    <contour>
      <point x="211" y="79" type="line"/>
      <point x="454" y="597" type="line"/>
      <point x="379" y="629" type="line"/>
      <point x="137" y="110" type="line"/>
    </contour>
    <component base="equal"/>
  </outline>
</glyph>
<glyph name="APLquaddiamond" format="2">
  <advance width="600"/>
  <unicode hex="233A"/>
  <outline>
    <contour>
      <point x="300" y="146" type="line"/>
      <point x="511" y="357" type="line"/>
      <point x="300" y="568" type="line"/>
      <point x="89" y="357" type="line"/>
    </contour>
    <contour>
      <point x="300" y="224" type="line"/>
      <point x="167" y="357" type="line"/>
      <point x="300" y="490" type="line"/>
      <point x="433" y="357" type="line"/>
    </contour>
    <component base="APLquad"/>
  </outline>
</glyph>
<glyph name="uni2C60" format="2">
  <advance width="600"/>
  <unicode hex="2C60"/>
  <anchor x="393" y="0" name="bottom"/>
  <anchor x="221" y="714" name="top"/>
  <anchor x="360" y="357" name="center"/>
  <anchor x="506" y="714" name="topright"/>
  <outline>
    <contour>
      <point x="60" y="382" type="line"/>
      <point x="407" y="382" type="line"/>
      <point x="407" y="453" type="line"/>
      <point x="60" y="453" type="line"/>
    </contour>
    <contour>
      <point x="60" y="222" type="line"/>
      <point x="407" y="222" type="line"/>
      <point x="407" y="293" type="line"/>
      <point x="60" y="293" type="line"/>
    </contour>
    <component base="L" xOffset="60"/>
  </outline>
</glyph>
<glyph name="uni2C6B" format="2">
  <advance width="600"/>
  <unicode hex="2C6B"/>
  <anchor x="312" y="-190" name="bottom"/>
  <anchor x="312" y="714" name="top"/>
  <anchor x="580" y="714" name="topright"/>
  <outline>
    <contour>
      <point x="419" y="-188" type="line"/>
      <point x="505" y="-188" type="line"/>
      <point x="505" y="80" type="line"/>
      <point x="409" y="80" type="line"/>
      <point x="419" y="0" type="line"/>
    </contour>
    <component base="Z"/>
  </outline>
</glyph>
<glyph name="uni2C6C" format="2">
  <advance width="600"/>
  <unicode hex="2C6C"/>
  <anchor x="300" y="-189" name="bottom"/>
  <anchor x="310" y="536" name="top"/>
  <anchor x="580" y="536" name="topright"/>
  <outline>
    <contour>
      <point x="423" y="-186" type="line"/>
      <point x="510" y="-186" type="line"/>
      <point x="510" y="72" type="line"/>
      <point x="401" y="72" type="line"/>
      <point x="423" y="0" type="line"/>
    </contour>
    <component base="z"/>
  </outline>
</glyph>
<glyph name="editorialcoronis" format="2">
  <advance width="600"/>
  <unicode hex="2E0E"/>
  <outline>
    <contour>
      <point x="307" y="289" type="curve" smooth="yes"/>
      <point x="341" y="289"/>
      <point x="369" y="317"/>
      <point x="369" y="351" type="curve" smooth="yes"/>
      <point x="369" y="360"/>
      <point x="366" y="369"/>
      <point x="363" y="377" type="curve"/>
      <point x="806" y="377" type="line"/>
      <point x="806" y="420" type="line"/>
      <point x="363" y="420" type="line"/>
      <point x="366" y="428"/>
      <point x="369" y="437"/>
      <point x="369" y="446" type="curve" smooth="yes"/>
      <point x="369" y="480"/>
      <point x="341" y="508"/>
      <point x="307" y="508" type="curve" smooth="yes"/>
      <point x="273" y="508"/>
      <point x="245" y="480"/>
      <point x="245" y="446" type="curve" smooth="yes"/>
      <point x="245" y="437"/>
      <point x="247" y="428"/>
      <point x="251" y="420" type="curve"/>
      <point x="-206" y="420" type="line"/>
      <point x="-206" y="377" type="line"/>
      <point x="251" y="377" type="line"/>
      <point x="247" y="369"/>
      <point x="245" y="360"/>
      <point x="245" y="351" type="curve" smooth="yes"/>
      <point x="245" y="317"/>
      <point x="273" y="289"/>
    </contour>
    <contour>
      <point x="244" y="-288" type="line"/>
      <point x="316" y="-270"/>
      <point x="354" y="-234"/>
      <point x="354" y="-182" type="curve" smooth="yes"/>
      <point x="354" y="-145"/>
      <point x="332" y="-119"/>
      <point x="297" y="-119" type="curve" smooth="yes"/>
      <point x="270" y="-119"/>
      <point x="253" y="-133"/>
      <point x="253" y="-158" type="curve" smooth="yes"/>
      <point x="253" y="-193"/>
      <point x="297" y="-184"/>
      <point x="297" y="-210" type="curve" smooth="yes"/>
      <point x="297" y="-228"/>
      <point x="279" y="-244"/>
      <point x="244" y="-256" type="curve"/>
    </contour>
    <contour>
      <point x="216" y="-41" type="line"/>
      <point x="398" y="-41" type="line"/>
      <point x="398" y="2" type="line"/>
      <point x="216" y="2" type="line"/>
    </contour>
    <contour>
      <point x="80" y="91" type="line"/>
      <point x="534" y="91" type="line"/>
      <point x="534" y="134" type="line"/>
      <point x="80" y="134" type="line"/>
    </contour>
    <contour>
      <point x="-56" y="233" type="line"/>
      <point x="670" y="233" type="line"/>
      <point x="670" y="276" type="line"/>
      <point x="-56" y="276" type="line"/>
    </contour>
    <contour>
      <point x="307" y="318" type="curve" smooth="yes"/>
      <point x="288" y="318"/>
      <point x="274" y="334"/>
      <point x="274" y="351" type="curve" smooth="yes"/>
      <point x="274" y="361"/>
      <point x="278" y="371"/>
      <point x="285" y="377" type="curve"/>
      <point x="328" y="377" type="line"/>
      <point x="336" y="371"/>
      <point x="340" y="361"/>
      <point x="340" y="351" type="curve" smooth="yes"/>
      <point x="340" y="332"/>
      <point x="326" y="318"/>
    </contour>
    <contour>
      <point x="286" y="420" type="line"/>
      <point x="278" y="426"/>
      <point x="274" y="436"/>
      <point x="274" y="446" type="curve" smooth="yes"/>
      <point x="274" y="465"/>
      <point x="288" y="479"/>
      <point x="307" y="479" type="curve" smooth="yes"/>
      <point x="326" y="479"/>
      <point x="340" y="465"/>
      <point x="340" y="446" type="curve" smooth="yes"/>
      <point x="340" y="435"/>
      <point x="336" y="426"/>
      <point x="328" y="420" type="curve"/>
    </contour>
    <contour>
      <point x="-56" y="521" type="line"/>
      <point x="670" y="521" type="line"/>
      <point x="670" y="564" type="line"/>
      <point x="-56" y="564" type="line"/>
    </contour>
    <contour>
      <point x="80" y="663" type="line"/>
      <point x="534" y="663" type="line"/>
      <point x="534" y="706" type="line"/>
      <point x="80" y="706" type="line"/>
    </contour>
    <contour>
      <point x="216" y="795" type="line"/>
      <point x="398" y="795" type="line"/>
      <point x="398" y="838" type="line"/>
      <point x="216" y="838" type="line"/>
    </contour>
    <contour>
      <point x="300" y="895" type="curve" smooth="yes"/>
      <point x="328" y="895"/>
      <point x="345" y="909"/>
      <point x="345" y="934" type="curve" smooth="yes"/>
      <point x="345" y="969"/>
      <point x="300" y="960"/>
      <point x="300" y="986" type="curve" smooth="yes"/>
      <point x="300" y="1004"/>
      <point x="318" y="1020"/>
      <point x="354" y="1032" type="curve"/>
      <point x="354" y="1064" type="line"/>
      <point x="281" y="1046"/>
      <point x="244" y="1010"/>
      <point x="244" y="958" type="curve" smooth="yes"/>
      <point x="244" y="921"/>
      <point x="266" y="895"/>
    </contour>
  </outline>
</glyph>
<glyph name="brackhalfbottomright" format="2">
  <advance width="600"/>
  <unicode hex="2E25"/>
  <outline>
    <contour>
      <point x="350" y="274" type="line"/>
      <point x="414" y="274" type="line"/>
      <point x="414" y="714" type="line"/>
      <point x="186" y="714" type="line"/>
      <point x="186" y="656" type="line"/>
      <point x="350" y="656" type="line"/>
    </contour>
  </outline>
</glyph>
<glyph name="uni2E44" format="2">
  <advance width="600"/>
  <unicode hex="2E44"/>
  <outline>
    <contour>
      <point x="218" y="494" type="line"/>
      <point x="425" y="718" type="line"/>
      <point x="354" y="760" type="line"/>
      <point x="175" y="524" type="line"/>
    </contour>
    <contour>
      <point x="218" y="-55" type="line"/>
      <point x="425" y="169" type="line"/>
      <point x="354" y="211" type="line"/>
      <point x="175" y="-25" type="line"/>
    </contour>
  </outline>
</glyph>
<glyph name="uniA643" format="2">
  <advance width="600"/>
  <unicode hex="A643"/>
  <outline>
    <contour>
      <point x="125" y="236" type="line"/>
      <point x="471" y="236" type="line"/>
      <point x="471" y="300" type="line"/>
      <point x="125" y="300" type="line"/>
    </contour>
    <component base="uniA641"/>
  </outline>
</glyph>
<glyph name="uniA65D" format="2">
  <advance width="1200"/>
  <unicode hex="A65D"/>
  <outline>
    <contour>
      <point x="211" y="0" type="line"/>
      <point x="296" y="0" type="line"/>
      <point x="296" y="247" type="line"/>
      <point x="661" y="247" type="line"/>
      <point x="661" y="314" type="line"/>
      <point x="296" y="314" type="line"/>
      <point x="296" y="537" type="line"/>
      <point x="211" y="537" type="line"/>
    </contour>
    <component base="uniA659" xOffset="477"/>
  </outline>
</glyph>
<glyph name="uniA719" format="2">
  <advance width="600"/>
  <unicode hex="A719"/>
  <outline>
    <contour>
      <point x="159" y="606" type="line"/>
      <point x="440" y="606" type="line"/>
      <point x="440" y="679" type="line"/>
      <point x="159" y="679" type="line"/>
    </contour>
    <contour>
      <point x="299" y="727" type="curve" smooth="yes"/>
      <point x="327" y="727"/>
      <point x="351" y="745"/>
      <point x="351" y="783" type="curve" smooth="yes"/>
      <point x="351" y="822"/>
      <point x="327" y="839"/>
      <point x="299" y="839" type="curve" smooth="yes"/>
      <point x="270" y="839"/>
      <point x="247" y="822"/>
      <point x="247" y="783" type="curve" smooth="yes"/>
      <point x="247" y="745"/>
      <point x="270" y="727"/>
    </contour>
  </outline>
</glyph>
<glyph name="uniA71A" format="2">
  <advance width="600"/>
  <unicode hex="A71A"/>
  <outline>
    <contour>
      <point x="167" y="595" type="line"/>
      <point x="433" y="595" type="line"/>
      <point x="433" y="761" type="line"/>
      <point x="380" y="761" type="line"/>
      <point x="380" y="648" type="line"/>
      <point x="167" y="648" type="line"/>
    </contour>
  </outline>
</glyph>
<glyph name="uniA72B" format="2">
  <advance width="600"/>
  <unicode hex="A72B"/>
  <outline>
    <contour>
      <point x="342" y="-240" type="curve" smooth="yes"/>
      <point x="427" y="-240"/>
      <point x="501" y="-226"/>
      <point x="557" y="-199" type="curve"/>
      <point x="557" y="-120" type="line"/>
      <point x="493" y="-151"/>
      <point x="419" y="-164"/>
      <point x="352" y="-164" type="curve" smooth="yes"/>
      <point x="228" y="-164"/>
      <point x="167" y="-108"/>
      <point x="167" y="-17" type="curve" smooth="yes"/>
      <point x="167" y="71"/>
      <point x="226" y="129"/>
      <point x="382" y="129" type="curve" smooth="yes"/>
      <point x="452" y="129" type="line"/>
      <point x="452" y="197" type="line"/>
      <point x="188" y="392" type="line"/>
      <point x="336" y="475" type="line"/>
      <point x="409" y="475"/>
      <point x="457" y="460"/>
      <point x="520" y="424" type="curve"/>
      <point x="551" y="490" type="line"/>
      <point x="486" y="532"/>
      <point x="421" y="547"/>
      <point x="321" y="547" type="curve"/>
      <point x="100" y="429" type="line"/>
      <point x="100" y="362" type="line"/>
      <point x="323" y="197" type="line"/>
      <point x="168" y="184"/>
      <point x="75" y="111"/>
      <point x="75" y="-23" type="curve" smooth="yes"/>
      <point x="75" y="-158"/>
      <point x="168" y="-240"/>
    </contour>
  </outline>
</glyph>
<glyph name="uniA741" format="2">
  <advance width="600"/>
  <unicode hex="A741"/>
  <anchor x="339" y="0" name="bottom"/>
  <anchor x="340" y="760" name="top"/>
  <anchor x="580" y="760" name="topright"/>
  <outline>
    <contour>
      <point x="0" y="605" type="line"/>
      <point x="355" y="605" type="line"/>
      <point x="355" y="670" type="line"/>
      <point x="0" y="670" type="line"/>
    </contour>
    <component base="k"/>
  </outline>
</glyph>
<glyph name="uniA742" format="2">
  <advance width="600"/>
  <unicode hex="A742"/>
  <anchor x="310" y="0" name="bottom"/>
  <anchor x="300" y="714" name="top"/>
  <anchor x="580" y="714" name="topright"/>
  <outline>
    <contour>
      <point x="284" y="41" type="line"/>
      <point x="521" y="293" type="line"/>
      <point x="474" y="337" type="line"/>
      <point x="239" y="86" type="line"/>
    </contour>
    <component base="K"/>
  </outline>
</glyph>
<glyph name="uniA743" format="2">
  <advance width="600"/>
  <unicode hex="A743"/>
  <anchor x="339" y="0" name="bottom"/>
  <anchor x="340" y="760" name="top"/>
  <anchor x="580" y="760" name="topright"/>
  <outline>
    <contour>
      <point x="300" y="49" type="line"/>
      <point x="519" y="260" type="line"/>
      <point x="469" y="313" type="line"/>
      <point x="251" y="102" type="line"/>
    </contour>
    <component base="k"/>
  </outline>
</glyph>
<glyph name="uniA749" format="2">
  <advance width="600"/>
  <unicode hex="A749"/>
  <anchor x="312" y="0" name="bottom"/>
  <anchor x="312" y="387" name="center"/>
  <anchor x="290" y="760" name="top"/>
  <anchor x="483" y="760" name="topright"/>
  <outline>
    <contour>
      <point x="141" y="551" type="line"/>
      <point x="482" y="551" type="line"/>
      <point x="482" y="615" type="line"/>
      <point x="141" y="615" type="line"/>
    </contour>
    <component base="l" xOffset="-10"/>
  </outline>
</glyph>
<glyph name="uniA74A" format="2">
  <advance width="600"/>
  <unicode hex="A74A"/>
  <anchor x="300" y="0" name="bottom"/>
  <anchor x="300" y="357" name="center"/>
  <anchor x="299" y="10" name="ogonek"/>
  <anchor x="300" y="714" name="top"/>
  <anchor x="20" y="714" name="topleft"/>
  <anchor x="600" y="714" name="topright"/>
  <outline>
    <contour>
      <point x="0" y="330" type="line"/>
      <point x="600" y="330" type="line"/>
      <point x="600" y="400" type="line"/>
      <point x="0" y="400" type="line"/>
    </contour>
    <component base="O"/>
  </outline>
</glyph>
<glyph name="uniA756" format="2">
  <advance width="600"/>
  <unicode hex="A756"/>
  <anchor x="300" y="-220" name="bottom"/>
  <anchor x="300" y="357" name="center"/>
  <anchor x="299" y="10" name="ogonek"/>
  <anchor x="300" y="714" name="top"/>
  <anchor x="20" y="714" name="topleft"/>
  <anchor x="600" y="714" name="topright"/>
  <outline>
    <contour>
      <point x="284" y="-173" type="line"/>
      <point x="606" y="-45" type="line"/>
      <point x="583" y="13" type="line"/>
      <point x="261" y="-114" type="line"/>
    </contour>
    <component base="Q"/>
  </outline>
</glyph>
<glyph name="uniA759" format="2">
  <advance width="600"/>
  <unicode hex="A759"/>
  <anchor x="280" y="-240" name="bottom"/>
  <anchor x="280" y="536" name="top"/>
  <anchor x="580" y="536" name="topright"/>
  <outline>
    <contour>
      <point x="318" y="-244" type="line"/>
      <point x="670" y="268" type="line" smooth="yes"/>
      <point x="704" y="317"/>
      <point x="720" y="362"/>
      <point x="720" y="410" type="curve" smooth="yes"/>
      <point x="720" y="492"/>
      <point x="674" y="536"/>
      <point x="580" y="536" type="curve"/>
      <point x="580" y="483" type="line"/>
      <point x="638" y="483"/>
      <point x="667" y="457"/>
      <point x="667" y="407" type="curve" smooth="yes"/>
      <point x="667" y="374"/>
      <point x="654" y="340"/>
      <point x="627" y="300" type="curve" smooth="yes"/>
      <point x="275" y="-213" type="line"/>
    </contour>
    <component base="q"/>
  </outline>
</glyph>
<glyph name="uniA75C" format="2">
  <advance width="600"/>
  <unicode hex="A75C"/>
  <outline>
    <contour>
      <point x="47" y="138" type="line"/>
      <point x="590" y="138" type="line"/>
      <point x="590" y="213" type="line"/>
      <point x="178" y="213" type="line"/>
      <point x="178" y="216" type="line"/>
      <point x="318" y="335" type="line" smooth="yes"/>
      <point x="416" y="418"/>
      <point x="461" y="481"/>
      <point x="461" y="565" type="curve" smooth="yes"/>
      <point x="461" y="670"/>
      <point x="385" y="724"/>
      <point x="263" y="724" type="curve" smooth="yes"/>
      <point x="176" y="724"/>
      <point x="114" y="695"/>
      <point x="56" y="645" type="curve"/>
      <point x="105" y="586" type="line"/>
      <point x="154" y="629"/>
      <point x="205" y="648"/>
      <point x="256" y="648" type="curve" smooth="yes"/>
      <point x="331" y="648"/>
      <point x="371" y="611"/>
      <point x="371" y="555" type="curve" smooth="yes"/>
      <point x="371" y="477"/>
      <point x="305" y="422"/>
      <point x="218" y="344" type="curve" smooth="yes"/>
      <point x="47" y="191" type="line"/>
    </contour>
    <contour>
      <point x="406" y="0" type="line"/>
      <point x="491" y="0" type="line"/>
      <point x="491" y="357" type="line"/>
      <point x="406" y="357" type="line"/>
    </contour>
  </outline>
</glyph>
<glyph name="uniA767" format="2">
  <advance width="600"/>
  <unicode hex="A767"/>
  <anchor x="320" y="-240" name="bottom"/>
  <anchor x="320" y="760" name="top"/>
  <outline>
    <contour>
      <point x="10" y="-144" type="line"/>
      <point x="365" y="-144" type="line"/>
      <point x="365" y="-79" type="line"/>
      <point x="10" y="-79" type="line"/>
    </contour>
    <component base="thorn"/>
  </outline>
</glyph>
<glyph name="uniA768" format="2">
  <advance width="600"/>
  <unicode hex="A768"/>
  <outline>
    <contour>
      <point x="25" y="-240" type="line"/>
      <point x="273" y="-240" type="line"/>
      <point x="273" y="-187" type="line"/>
      <point x="194" y="-165" type="line"/>
      <point x="194" y="-11" type="line"/>
      <point x="583" y="714" type="line"/>
      <point x="482" y="714" type="line"/>
      <point x="262" y="291" type="line" smooth="yes"/>
      <point x="232" y="233"/>
      <point x="205" y="176"/>
      <point x="188" y="133" type="curve"/>
      <point x="184" y="134" type="line"/>
      <point x="189" y="175"/>
      <point x="194" y="247"/>
      <point x="194" y="312" type="curve" smooth="yes"/>
      <point x="194" y="639" type="line"/>
      <point x="273" y="661" type="line"/>
      <point x="273" y="714" type="line"/>
      <point x="25" y="714" type="line"/>
      <point x="25" y="661" type="line"/>
      <point x="104" y="639" type="line"/>
      <point x="104" y="-165" type="line"/>
      <point x="25" y="-187" type="line"/>
    </contour>
  </outline>
</glyph>
<glyph name="uniA772" format="2">
  <advance width="600"/>
  <unicode hex="A772"/>
  <anchor x="352" y="0" name="bottom"/>
  <anchor x="352" y="387" name="center"/>
  <anchor x="330" y="760" name="top"/>
  <anchor x="523" y="760" name="topright"/>
  <outline>
    <contour>
      <point x="30" y="-157" type="line"/>
      <point x="99" y="-157" type="line"/>
      <point x="264" y="228" type="line"/>
      <point x="196" y="228" type="line"/>
    </contour>
    <contour>
      <point x="30" y="0" type="line"/>
      <point x="345" y="0" type="line"/>
      <point x="345" y="72" type="line"/>
      <point x="30" y="72" type="line"/>
    </contour>
    <component base="l" xOffset="30"/>
  </outline>
</glyph>
<glyph name="uniA77B" format="2">
  <advance width="600"/>
  <unicode hex="A77B"/>
  <outline>
    <contour>
      <point x="138" y="258" type="line"/>
      <point x="526" y="258" type="line"/>
      <point x="526" y="332" type="line"/>
      <point x="138" y="332" type="line"/>
    </contour>
    <component base="uniA784"/>
  </outline>
</glyph>
<glyph name="uniA791" format="2">
  <advance width="600"/>
  <unicode hex="A791"/>
  <anchor x="306" y="0" name="bottom"/>
  <anchor x="312" y="536" name="top"/>
  <anchor x="580" y="536" name="topright"/>
  <outline>
    <contour>
      <point x="501" y="-186" type="line"/>
      <point x="588" y="-186" type="line"/>
      <point x="588" y="72" type="line"/>
      <point x="479" y="72" type="line"/>
      <point x="479" y="0" type="line"/>
      <point x="501" y="0" type="line"/>
    </contour>
    <component base="n"/>
  </outline>
</glyph>
<glyph name="uniA793" format="2">
  <advance width="600"/>
  <unicode hex="A793"/>
  <anchor x="386" y="0" name="bottom"/>
  <anchor x="382" y="536" name="top"/>
  <anchor x="634" y="536" name="topright"/>
  <outline>
    <contour>
      <point x="50" y="247" type="line"/>
      <point x="417" y="247" type="line"/>
      <point x="417" y="317" type="line"/>
      <point x="50" y="317" type="line"/>
    </contour>
    <component base="c" xOffset="54"/>
  </outline>
</glyph>
<glyph name="uniA794" format="2">
  <advance width="600"/>
  <unicode hex="A794"/>
  <anchor x="332" y="0" name="bottom"/>
  <anchor x="328" y="536" name="top"/>
  <anchor x="580" y="536" name="topright"/>
  <outline>
    <contour>
      <point x="382" y="-198" type="curve" smooth="yes"/>
      <point x="462" y="-198"/>
      <point x="499" y="-151"/>
      <point x="499" y="-65" type="curve" smooth="yes"/>
      <point x="499" y="68" type="line"/>
      <point x="420" y="33" type="line"/>
      <point x="420" y="-70" type="line" smooth="yes"/>
      <point x="420" y="-106"/>
      <point x="402" y="-122"/>
      <point x="372" y="-122" type="curve" smooth="yes"/>
      <point x="351" y="-122"/>
      <point x="333" y="-117"/>
      <point x="322" y="-113" type="curve"/>
      <point x="322" y="-186" type="line"/>
      <point x="335" y="-191"/>
      <point x="357" y="-198"/>
    </contour>
    <component base="c"/>
  </outline>
</glyph>
<glyph name="uniA7A0" format="2">
  <advance width="600"/>
  <unicode hex="A7A0"/>
  <anchor x="337" y="0" name="bottom"/>
  <anchor x="322" y="714" name="top"/>
  <anchor x="580" y="714" name="topright"/>
  <outline>
    <contour>
      <point x="0" y="393" type="line"/>
      <point x="600" y="495" type="line"/>
      <point x="600" y="557" type="line"/>
      <point x="0" y="455" type="line"/>
    </contour>
    <component base="G"/>
  </outline>
</glyph>
<glyph name="uniA7A2" format="2">
  <advance width="600"/>
  <unicode hex="A7A2"/>
  <anchor x="310" y="0" name="bottom"/>
  <anchor x="300" y="714" name="top"/>
  <anchor x="580" y="714" name="topright"/>
  <outline>
    <contour>
      <point x="257" y="322" type="line"/>
      <point x="600" y="380" type="line"/>
      <point x="600" y="442" type="line"/>
      <point x="228" y="378" type="line"/>
    </contour>
    <contour>
      <point x="0" y="278" type="line"/>
      <point x="147" y="303" type="line"/>
      <point x="147" y="364" type="line"/>
      <point x="0" y="340" type="line"/>
    </contour>
    <component base="K"/>
  </outline>
</glyph>
<glyph name="uniA7A7" format="2">
  <advance width="600"/>
  <unicode hex="A7A7"/>
  <anchor x="271" y="0" name="bottom"/>
  <anchor x="340" y="536" name="top"/>
  <anchor x="580" y="536" name="topright"/>
  <outline>
    <contour>
      <point x="0" y="170" type="line"/>
      <point x="600" y="297" type="line"/>
      <point x="600" y="360" type="line"/>
      <point x="0" y="233" type="line"/>
    </contour>
    <component base="r"/>
  </outline>
</glyph>
<glyph name="uniA7A9" format="2">
  <advance width="600"/>
  <unicode hex="A7A9"/>
  <anchor x="305" y="0" name="bottom"/>
  <anchor x="305" y="536" name="top"/>
  <anchor x="580" y="536" name="topright"/>
  <outline>
    <contour>
      <point x="0" y="190" type="line"/>
      <point x="600" y="317" type="line"/>
      <point x="600" y="380" type="line"/>
      <point x="0" y="253" type="line"/>
    </contour>
    <component base="s"/>
  </outline>
</glyph>
<glyph name="uniA7AE" format="2">
  <advance width="600"/>
  <unicode hex="A7AE"/>
  <outline>
    <contour>
      <point x="112" y="0" type="line"/>
      <point x="498" y="0" type="line"/>
      <point x="498" y="48" type="line"/>
      <point x="339" y="60" type="line"/>
      <point x="339" y="477" type="line"/>
      <point x="498" y="489" type="line"/>
      <point x="498" y="537" type="line"/>
      <point x="112" y="537" type="line"/>
      <point x="112" y="489" type="line"/>
      <point x="261" y="477" type="line"/>
      <point x="261" y="60" type="line"/>
      <point x="112" y="48" type="line"/>
    </contour>
  </outline>
</glyph>
<glyph name="uniA7AF" format="2">
  <advance width="600"/>
  <unicode hex="A7AF"/>
  <anchor x="300" y="0" name="bottom"/>
  <anchor x="300" y="286" name="center"/>
  <anchor x="301" y="10" name="ogonek"/>
  <anchor x="300" y="572" name="top"/>
  <anchor x="300" y="602" name="topleft"/>
  <anchor x="300" y="572" name="topright"/>
  <outline>
    <contour>
      <point x="413" y="40" type="line"/>
      <point x="326" y="27" type="line"/>
      <point x="438" y="-139" type="line"/>
      <point x="546" y="-139" type="line"/>
    </contour>
    <component base="o.sc"/>
  </outline>
</glyph>
<glyph name="uniA7F7" format="2">
  <advance width="600"/>
  <unicode hex="A7F7"/>
  <outline>
    <contour>
      <point x="20" y="54" type="line"/>
      <point x="82" y="54" type="line"/>
      <point x="95" y="200" type="line"/>
      <point x="505" y="200" type="line"/>
      <point x="518" y="54" type="line"/>
      <point x="580" y="54" type="line"/>
      <point x="580" y="434" type="line"/>
      <point x="518" y="434" type="line"/>
      <point x="505" y="290" type="line"/>
      <point x="95" y="290" type="line"/>
      <point x="82" y="434" type="line"/>
      <point x="20" y="434" type="line"/>
    </contour>
  </outline>
</glyph>
<glyph name="uniAB39" format="2">
  <advance width="600"/>
  <unicode hex="AB39"/>
  <anchor x="322" y="0" name="bottom"/>
  <anchor x="322" y="387" name="center"/>
  <anchor x="300" y="760" name="top"/>
  <anchor x="493" y="760" name="topright"/>
  <outline>
    <contour>
      <point x="322" y="216" type="curve" smooth="yes"/>
      <point x="419" y="216"/>
      <point x="487" y="284"/>
      <point x="487" y="381" type="curve" smooth="yes"/>
      <point x="487" y="478"/>
      <point x="419" y="546"/>
      <point x="322" y="546" type="curve" smooth="yes"/>
      <point x="225" y="546"/>
      <point x="157" y="478"/>
      <point x="157" y="381" type="curve" smooth="yes"/>
      <point x="157" y="284"/>
      <point x="225" y="216"/>
    </contour>
    <contour>
      <point x="322" y="271" type="curve" smooth="yes"/>
      <point x="258" y="271"/>
      <point x="212" y="317"/>
      <point x="212" y="381" type="curve" smooth="yes"/>
      <point x="212" y="445"/>
      <point x="258" y="491"/>
      <point x="322" y="491" type="curve" smooth="yes"/>
      <point x="386" y="491"/>
      <point x="432" y="445"/>
      <point x="432" y="381" type="curve" smooth="yes"/>
      <point x="432" y="317"/>
      <point x="386" y="271"/>
    </contour>
    <component base="l"/>
  </outline>
</glyph>
<glyph name="uniAB41" format="2">
  <advance width="600"/>
  <unicode hex="AB41"/>
  <anchor x="301" y="538" name="bottom"/>
  <anchor x="301" y="2" name="top"/>
  <outline>
    <contour>
      <point x="336" y="-33" type="line"/>
      <point x="543" y="544" type="line"/>
      <point x="484" y="564" type="line"/>
      <point x="277" y="-13" type="line"/>
    </contour>
    <component base="oe" xScale="-1" yScale="-1" xOffset="601" yOffset="538"/>
  </outline>
</glyph>
<glyph name="uniAB60" format="2">
  <advance width="600"/>
  <unicode hex="AB60"/>
  <outline>
    <contour>
      <point x="70" y="0" type="line"/>
      <point x="158" y="0" type="line"/>
      <point x="158" y="537" type="line"/>
      <point x="70" y="537" type="line"/>
    </contour>
    <contour>
      <point x="235" y="0" type="line"/>
      <point x="383" y="0" type="line" smooth="yes"/>
      <point x="522" y="0"/>
      <point x="585" y="61"/>
      <point x="585" y="166" type="curve" smooth="yes"/>
      <point x="585" y="263"/>
      <point x="530" y="320"/>
      <point x="399" y="320" type="curve" smooth="yes"/>
      <point x="323" y="320" type="line"/>
      <point x="323" y="537" type="line"/>
      <point x="235" y="537" type="line"/>
    </contour>
    <contour>
      <point x="323" y="68" type="line"/>
      <point x="323" y="252" type="line"/>
      <point x="386" y="252" type="line" smooth="yes"/>
      <point x="463" y="252"/>
      <point x="505" y="229"/>
      <point x="505" y="163" type="curve" smooth="yes"/>
      <point x="505" y="98"/>
      <point x="464" y="68"/>
      <point x="385" y="68" type="curve" smooth="yes"/>
    </contour>
  </outline>
</glyph>
<glyph name="f_f_i" format="2">
  <advance width="1200"/>
  <unicode hex="FB03"/>
  <anchor x="986" y="0" name="bottom _3"/>
  <anchor x="246" y="0" name="bottom_1"/>
  <anchor x="607" y="0" name="bottom_2"/>
  <anchor x="430" y="0" name="caret_1"/>
  <anchor x="800" y="0" name="caret_2"/>
  <anchor x="246" y="765" name="top_1"/>
  <anchor x="606" y="765" name="top_2"/>
  <anchor x="986" y="765" name="top_3"/>
  <outline>
    <contour>
      <point x="201" y="0" type="line"/>
      <point x="291" y="0" type="line"/>
      <point x="291" y="461" type="line"/>
      <point x="571" y="461" type="line"/>
      <point x="571" y="0" type="line"/>
      <point x="661" y="0" type="line"/>
      <point x="661" y="461" type="line"/>
      <point x="950" y="461" type="line"/>
      <point x="950" y="0" type="line"/>
      <point x="1040" y="0" type="line"/>
      <point x="1040" y="536" type="line"/>
      <point x="661" y="536" type="line"/>
      <point x="661" y="585" type="line" smooth="yes"/>
      <point x="661" y="668"/>
      <point x="701" y="691"/>
      <point x="771" y="691" type="curve" smooth="yes"/>
      <point x="810" y="691"/>
      <point x="853" y="684"/>
      <point x="880" y="676" type="curve"/>
      <point x="900" y="745" type="line"/>
      <point x="868" y="755"/>
      <point x="824" y="765"/>
      <point x="766" y="765" type="curve" smooth="yes"/>
      <point x="649" y="765"/>
      <point x="571" y="724"/>
      <point x="571" y="597" type="curve" smooth="yes"/>
      <point x="571" y="536" type="line"/>
      <point x="291" y="536" type="line"/>
      <point x="291" y="585" type="line" smooth="yes"/>
      <point x="291" y="668"/>
      <point x="331" y="691"/>
      <point x="401" y="691" type="curve" smooth="yes"/>
      <point x="440" y="691"/>
      <point x="483" y="684"/>
      <point x="510" y="676" type="curve"/>
      <point x="530" y="745" type="line"/>
      <point x="498" y="755"/>
      <point x="454" y="765"/>
      <point x="396" y="765" type="curve" smooth="yes"/>
      <point x="279" y="765"/>
      <point x="201" y="724"/>
      <point x="201" y="597" type="curve" smooth="yes"/>
      <point x="201" y="536" type="line"/>
      <point x="56" y="523" type="line"/>
      <point x="56" y="461" type="line"/>
      <point x="201" y="461" type="line"/>
    </contour>
    <contour>
      <point x="986" y="633" type="curve" smooth="yes"/>
      <point x="1020" y="633"/>
      <point x="1049" y="654"/>
      <point x="1049" y="696" type="curve" smooth="yes"/>
      <point x="1049" y="740"/>
      <point x="1020" y="760"/>
      <point x="986" y="760" type="curve" smooth="yes"/>
      <point x="951" y="760"/>
      <point x="923" y="740"/>
      <point x="923" y="696" type="curve" smooth="yes"/>
      <point x="923" y="654"/>
      <point x="951" y="633"/>
    </contour>
  </outline>
</glyph>
<glyph name="f_f_l" format="2">
  <advance width="1200"/>
  <unicode hex="FB04"/>
  <anchor x="993" y="0" name="bottom _3"/>
  <anchor x="246" y="0" name="bottom_1"/>
  <anchor x="607" y="0" name="bottom_2"/>
  <anchor x="440" y="0" name="caret_1"/>
  <anchor x="820" y="0" name="caret_2"/>
  <anchor x="246" y="765" name="top_1"/>
  <anchor x="606" y="765" name="top_2"/>
  <anchor x="993" y="765" name="top_3"/>
  <outline>
    <contour>
      <point x="201" y="0" type="line"/>
      <point x="291" y="0" type="line"/>
      <point x="291" y="461" type="line"/>
      <point x="571" y="461" type="line"/>
      <point x="571" y="0" type="line"/>
      <point x="661" y="0" type="line"/>
      <point x="661" y="461" type="line"/>
      <point x="877" y="461" type="line"/>
      <point x="877" y="536" type="line"/>
      <point x="661" y="536" type="line"/>
      <point x="661" y="585" type="line" smooth="yes"/>
      <point x="661" y="668"/>
      <point x="701" y="691"/>
      <point x="771" y="691" type="curve" smooth="yes"/>
      <point x="810" y="691"/>
      <point x="853" y="684"/>
      <point x="880" y="676" type="curve"/>
      <point x="900" y="745" type="line"/>
      <point x="868" y="755"/>
      <point x="824" y="765"/>
      <point x="766" y="765" type="curve" smooth="yes"/>
      <point x="649" y="765"/>
      <point x="571" y="724"/>
      <point x="571" y="597" type="curve" smooth="yes"/>
      <point x="571" y="536" type="line"/>
      <point x="291" y="536" type="line"/>
      <point x="291" y="585" type="line" smooth="yes"/>
      <point x="291" y="668"/>
      <point x="331" y="691"/>
      <point x="401" y="691" type="curve" smooth="yes"/>
      <point x="440" y="691"/>
      <point x="483" y="684"/>
      <point x="510" y="676" type="curve"/>
      <point x="530" y="745" type="line"/>
      <point x="498" y="755"/>
      <point x="454" y="765"/>
      <point x="396" y="765" type="curve" smooth="yes"/>
      <point x="279" y="765"/>
      <point x="201" y="724"/>
      <point x="201" y="597" type="curve" smooth="yes"/>
      <point x="201" y="536" type="line"/>
      <point x="56" y="523" type="line"/>
      <point x="56" y="461" type="line"/>
      <point x="201" y="461" type="line"/>
    </contour>
    <contour>
      <point x="950" y="0" type="line"/>
      <point x="1040" y="0" type="line"/>
      <point x="1040" y="760" type="line"/>
      <point x="950" y="760" type="line"/>
    </contour>
  </outline>
</glyph>
<glyph name="longs_t" format="2">
  <advance width="600"/>
  <unicode hex="FB05"/>
  <anchor x="158" y="0" name="bottom"/>
  <anchor x="125" y="0" name="bottom_1"/>
  <anchor x="393" y="0" name="bottom_2"/>
  <anchor x="253" y="0" name="caret_1"/>
  <anchor x="393" y="268" name="center"/>
  <anchor x="257" y="765" name="top"/>
  <anchor x="125" y="765" name="top_1"/>
  <anchor x="393" y="765" name="top_2"/>
  <anchor x="601" y="679" name="topright"/>
  <outline>
    <contour>
      <point x="471" y="-10" type="curve" smooth="yes"/>
      <point x="501" y="-10"/>
      <point x="541" y="-5"/>
      <point x="574" y="6" type="curve"/>
      <point x="574" y="78" type="line"/>
      <point x="540" y="66"/>
      <point x="509" y="63"/>
      <point x="493" y="63" type="curve" smooth="yes"/>
      <point x="444" y="63"/>
      <point x="433" y="92"/>
      <point x="433" y="142" type="curve" smooth="yes"/>
      <point x="433" y="461" type="line"/>
      <point x="569" y="461" type="line"/>
      <point x="569" y="536" type="line"/>
      <point x="433" y="536" type="line"/>
      <point x="433" y="659" type="line"/>
      <point x="408" y="722"/>
      <point x="339" y="765"/>
      <point x="248" y="765" type="curve" smooth="yes"/>
      <point x="149" y="765"/>
      <point x="80" y="715"/>
      <point x="80" y="577" type="curve" smooth="yes"/>
      <point x="80" y="0" type="line"/>
      <point x="168" y="0" type="line"/>
      <point x="168" y="577" type="line" smooth="yes"/>
      <point x="168" y="656"/>
      <point x="190" y="692"/>
      <point x="248" y="692" type="curve" smooth="yes"/>
      <point x="291" y="692"/>
      <point x="327" y="672"/>
      <point x="343" y="641" type="curve"/>
      <point x="343" y="539" type="line"/>
      <point x="250" y="523" type="line"/>
      <point x="250" y="461" type="line"/>
      <point x="343" y="461" type="line"/>
      <point x="343" y="134" type="line" smooth="yes"/>
      <point x="343" y="30"/>
      <point x="387" y="-10"/>
    </contour>
  </outline>
</glyph>
<glyph name="s_t" format="2">
  <advance width="1200"/>
  <unicode hex="FB06"/>
  <anchor x="305" y="0" name="bottom"/>
  <anchor x="287" y="0" name="bottom_1"/>
  <anchor x="847" y="0" name="bottom_2"/>
  <anchor x="643" y="0" name="caret_1"/>
  <anchor x="852" y="268" name="center"/>
  <anchor x="305" y="536" name="top"/>
  <anchor x="287" y="536" name="top_1"/>
  <anchor x="847" y="765" name="top_2"/>
  <anchor x="1180" y="679" name="topright"/>
  <outline>
    <contour>
      <point x="1002" y="-10" type="curve" smooth="yes"/>
      <point x="1045" y="-10"/>
      <point x="1084" y="-2"/>
      <point x="1116" y="6" type="curve"/>
      <point x="1116" y="78" type="line"/>
      <point x="1087" y="71"/>
      <point x="1043" y="63"/>
      <point x="1008" y="63" type="curve" smooth="yes"/>
      <point x="925" y="63"/>
      <point x="892" y="99"/>
      <point x="892" y="180" type="curve" smooth="yes"/>
      <point x="892" y="461" type="line"/>
      <point x="1101" y="461" type="line"/>
      <point x="1101" y="536" type="line"/>
      <point x="892" y="536" type="line"/>
      <point x="892" y="675" type="line"/>
      <point x="852" y="718"/>
      <point x="759" y="765"/>
      <point x="624" y="765" type="curve" smooth="yes"/>
      <point x="475" y="765"/>
      <point x="376" y="708"/>
      <point x="376" y="604" type="curve" smooth="yes"/>
      <point x="376" y="567"/>
      <point x="389" y="537"/>
      <point x="408" y="511" type="curve"/>
      <point x="487" y="511" type="line"/>
      <point x="460" y="538"/>
      <point x="455" y="567"/>
      <point x="455" y="588" type="curve" smooth="yes"/>
      <point x="455" y="656"/>
      <point x="507" y="692"/>
      <point x="617" y="692" type="curve" smooth="yes"/>
      <point x="697" y="692"/>
      <point x="768" y="673"/>
      <point x="802" y="642" type="curve"/>
      <point x="802" y="539" type="line"/>
      <point x="656" y="523" type="line"/>
      <point x="656" y="461" type="line"/>
      <point x="802" y="461" type="line"/>
      <point x="802" y="163" type="line" smooth="yes"/>
      <point x="802" y="28"/>
      <point x="888" y="-10"/>
    </contour>
    <contour>
      <point x="279" y="-10" type="curve" smooth="yes"/>
      <point x="421" y="-10"/>
      <point x="495" y="44"/>
      <point x="495" y="146" type="curve" smooth="yes"/>
      <point x="495" y="237"/>
      <point x="436" y="260"/>
      <point x="330" y="305" type="curve" smooth="yes"/>
      <point x="236" y="345"/>
      <point x="201" y="361"/>
      <point x="201" y="405" type="curve" smooth="yes"/>
      <point x="201" y="450"/>
      <point x="237" y="471"/>
      <point x="320" y="471" type="curve" smooth="yes"/>
      <point x="364" y="471"/>
      <point x="406" y="465"/>
      <point x="460" y="442" type="curve"/>
      <point x="487" y="512" type="line"/>
      <point x="429" y="536"/>
      <point x="379" y="546"/>
      <point x="320" y="546" type="curve" smooth="yes"/>
      <point x="191" y="546"/>
      <point x="114" y="498"/>
      <point x="114" y="403" type="curve" smooth="yes"/>
      <point x="114" y="317"/>
      <point x="176" y="287"/>
      <point x="280" y="242" type="curve" smooth="yes"/>
      <point x="384" y="197"/>
      <point x="405" y="186"/>
      <point x="405" y="144" type="curve" smooth="yes"/>
      <point x="405" y="92"/>
      <point x="372" y="64"/>
      <point x="284" y="64" type="curve" smooth="yes"/>
      <point x="205" y="64"/>
      <point x="151" y="86"/>
      <point x="105" y="107" type="curve"/>
      <point x="105" y="24" type="line"/>
      <point x="149" y="2"/>
      <point x="212" y="-10"/>
    </contour>
  </outline>
</glyph>
<glyph name="eth.sc" format="2">
  <advance width="600"/>
  <anchor x="300" y="0" name="bottom"/>
  <anchor x="300" y="572" name="top"/>
  <anchor x="300" y="286" name="center"/>
  <anchor x="580" y="572" name="topright"/>
  <outline>
    <contour>
      <point x="0" y="251" type="line"/>
      <point x="305" y="251" type="line"/>
      <point x="305" y="316" type="line"/>
      <point x="0" y="316" type="line"/>
    </contour>
    <component base="d.sc"/>
  </outline>
</glyph>
<glyph name="hbar.sc" format="2">
  <advance width="600"/>
  <anchor x="300" y="0" name="bottom"/>
  <anchor x="300" y="572" name="top"/>
  <anchor x="300" y="286" name="center"/>
  <anchor x="580" y="572" name="topright"/>
  <outline>
    <contour>
      <point x="0" y="419" type="line"/>
      <point x="600" y="419" type="line"/>
      <point x="600" y="482" type="line"/>
      <point x="0" y="482" type="line"/>
    </contour>
    <component base="h.sc"/>
  </outline>
</glyph>
<glyph name="lslash.sc" format="2">
  <advance width="600"/>
  <anchor x="372" y="0" name="bottom"/>
  <anchor x="230" y="572" name="top"/>
  <anchor x="234" y="286" name="center"/>
  <anchor x="484" y="572" name="topright"/>
  <outline>
    <contour>
      <point x="109" y="191" type="line"/>
      <point x="403" y="370" type="line"/>
      <point x="365" y="428" type="line"/>
      <point x="72" y="250" type="line"/>
    </contour>
    <component base="l.sc" xOffset="30"/>
  </outline>
</glyph>
<glyph name="oslash.sc" format="2">
  <advance width="600"/>
  <anchor x="300" y="-33" name="bottom"/>
  <anchor x="300" y="600" name="top"/>
  <anchor x="300" y="286" name="center"/>
  <anchor x="301" y="10" name="ogonek"/>
  <anchor x="300" y="602" name="topleft"/>
  <anchor x="300" y="572" name="topright"/>
  <outline>
    <contour>
      <point x="123" y="-33" type="line"/>
      <point x="543" y="560" type="line"/>
      <point x="486" y="600" type="line"/>
      <point x="65" y="6" type="line"/>
    </contour>
    <component base="o.sc"/>
  </outline>
</glyph>
<glyph name="uni02E5_uni02E8_uni02E9" format="2">
  <advance width="600"/>
  <outline>
    <contour>
      <point x="424" y="0" type="line"/>
      <point x="490" y="0" type="line"/>
      <point x="490" y="688" type="line"/>
      <point x="424" y="688" type="line"/>
      <point x="424" y="93" type="line"/>
      <point x="320" y="198" type="line"/>
      <point x="111" y="688" type="line"/>
      <point x="49" y="661" type="line"/>
      <point x="264" y="160" type="line"/>
    </contour>
  </outline>
</glyph>
<glyph name="uni02E8_uni02E8_uni02E5" format="2">
  <advance width="600"/>
  <outline>
    <contour>
      <point x="424" y="0" type="line"/>
      <point x="490" y="0" type="line"/>
      <point x="490" y="688" type="line"/>
      <point x="424" y="688" type="line"/>
      <point x="269" y="233" type="line"/>
      <point x="104" y="233" type="line"/>
      <point x="104" y="167" type="line"/>
      <point x="317" y="167" type="line"/>
      <point x="424" y="480" type="line"/>
    </contour>
  </outline>
</glyph>
<glyph name="uni02E8_uni02E9_uni02E5" format="2">
  <advance width="600"/>
  <outline>
    <contour>
      <point x="264" y="0" type="line"/>
      <point x="424" y="478" type="line"/>
      <point x="424" y="0" type="line"/>
      <point x="490" y="0" type="line"/>
      <point x="490" y="688" type="line"/>
      <point x="424" y="688" type="line"/>
      <point x="233" y="119" type="line"/>
      <point x="108" y="234" type="line"/>
      <point x="63" y="184" type="line"/>
    </contour>
  </outline>
</glyph>
